<svg width="200" height="200" viewBox="0 0 200 200" fill="none" xmlns="http://www.w3.org/2000/svg">
<path fill-rule="evenodd" clip-rule="evenodd" d="M100.445 0C102.482 0 104.328 0.759604 105.731 1.97501C107.343 3.36633 108.379 5.36538 108.379 7.60428C108.379 9.84319 107.343 11.8422 105.731 13.2336C104.978 13.8865 104.096 14.408 103.125 14.7507V86.5641C103.125 89.1529 101.027 91.2516 98.4379 91.2516C95.8491 91.2516 93.7504 89.1529 93.7504 86.5641V13.8128C93.7504 13.2068 93.8654 12.6276 94.0748 12.0959C93.0969 10.8393 92.51 9.28974 92.51 7.60428C92.51 5.36538 93.5457 3.36633 95.1576 1.97501C96.5608 0.759604 98.4066 0 100.445 0ZM100 193.917C138.833 193.917 172.151 170.936 186.383 138.184C187.082 136.575 187.735 134.942 188.341 133.287L194.433 134.769C193.731 136.726 192.966 138.655 192.142 140.552C176.961 175.487 141.421 200 100 200C70.3377 200 43.6919 187.429 25.3786 167.463L30.2668 163.657C47.4284 182.234 72.3125 193.917 100 193.917ZM193.75 102.665C193.75 104.19 193.712 105.707 193.636 107.214L199.854 107.97C199.951 106.214 200 104.445 200 102.665C200 55.6282 165.722 16.384 120.153 7.30785C117.636 6.80632 115.083 6.39692 112.5 6.0834V12.2178C114.655 12.4973 116.787 12.8481 118.894 13.2677C161.614 21.7765 193.75 58.568 193.75 102.665ZM84.375 6.51155V12.6755C58.5685 16.8896 36.337 31.3658 22.261 51.6456C21.2212 53.1438 20.2258 54.6736 19.2769 56.2333L13.9166 53.1029C14.9225 51.4513 15.977 49.8312 17.0784 48.2443C32.2818 26.3401 56.405 10.7833 84.375 6.51155ZM4.08073 75.0535L9.91233 77.324C7.52774 85.3697 6.25 93.8722 6.25 102.665C6.25 116.839 9.57015 130.259 15.4948 142.226C15.8577 142.96 16.2304 143.687 16.6128 144.409L11.021 147.131C10.6246 146.381 10.2379 145.625 9.86108 144.864C3.5415 132.098 0 117.784 0 102.665C0 93.074 1.42521 83.8069 4.08073 75.0535ZM104.145 100.831C102.741 99.6152 100.896 98.8556 98.8576 98.8556C96.8197 98.8556 94.9739 99.6152 93.5707 100.831C91.9588 102.222 90.923 104.221 90.923 106.46C90.923 108.699 91.9588 110.698 93.5707 112.089C94.9739 113.305 96.8197 114.064 98.8576 114.064C100.896 114.064 102.741 113.305 104.145 112.089C105.757 110.698 106.792 108.699 106.792 106.46C106.792 104.221 105.757 102.222 104.145 100.831ZM145.974 26.8156C148.012 26.8156 149.858 27.5752 151.261 28.7906C152.873 30.1819 153.908 32.181 153.908 34.4199C153.908 36.6588 152.873 38.6578 151.261 40.0492C149.858 41.2646 148.012 42.0242 145.974 42.0242C145.429 42.0242 144.898 41.9699 144.385 41.8671L113.5 93.68C112.183 95.8889 109.301 96.6545 107.061 95.3899C104.822 94.1253 104.074 91.3095 105.391 89.1005L136.885 36.2661C137.198 35.7416 137.599 35.2985 138.058 34.9446C138.046 34.7713 138.039 34.5963 138.039 34.4199C138.039 32.181 139.075 30.1819 140.687 28.7906C142.09 27.5752 143.936 26.8156 145.974 26.8156ZM166.417 74.6009C165.014 73.3855 163.168 72.6259 161.13 72.6259C159.092 72.6259 157.246 73.3855 155.843 74.6009C154.896 75.4182 154.148 76.4451 153.692 77.6072C152.919 77.5702 152.129 77.7231 151.394 78.0894L113.483 96.9809C111.214 98.1112 110.332 100.846 111.512 103.089C112.691 105.332 115.487 106.234 117.755 105.103L155.666 86.2119C155.79 86.1502 155.91 86.0837 156.025 86.0127C157.404 87.1384 159.179 87.8345 161.13 87.8345C163.168 87.8345 165.014 87.0749 166.417 85.8595C168.029 84.4681 169.065 82.4691 169.065 80.2302C169.065 77.9913 168.029 75.9922 166.417 74.6009ZM191.951 111.106C193.989 111.106 195.835 111.866 197.238 113.081C198.85 114.473 199.886 116.472 199.886 118.711C199.886 120.95 198.85 122.949 197.238 124.34C195.835 125.555 193.989 126.315 191.951 126.315C189.913 126.315 188.068 125.555 186.665 124.34C186.285 124.013 185.938 123.651 185.628 123.261L117.039 116.012C114.532 115.747 112.727 113.501 113.006 110.996C113.286 108.491 115.544 106.675 118.051 106.94L185.686 114.089C185.98 113.726 186.308 113.389 186.665 113.081C188.068 111.866 189.913 111.106 191.951 111.106ZM156.513 157.102C155.11 155.887 153.264 155.127 151.226 155.127C150.239 155.127 149.297 155.305 148.428 155.628L113.181 118.925C111.41 117.08 108.441 116.98 106.55 118.701C104.659 120.422 104.561 123.312 106.332 125.156L143.359 163.712C143.612 165.551 144.567 167.176 145.939 168.361C147.342 169.576 149.188 170.336 151.226 170.336C153.264 170.336 155.11 169.576 156.513 168.361C158.125 166.969 159.161 164.97 159.161 162.731C159.161 160.493 158.125 158.494 156.513 157.102ZM93.7504 126.356V158.689C92.9686 159.858 92.51 161.242 92.51 162.731C92.51 164.97 93.5457 166.969 95.1576 168.361C96.5608 169.576 98.4066 170.336 100.445 170.336C102.482 170.336 104.328 169.576 105.731 168.361C107.343 166.969 108.379 164.97 108.379 162.731C108.379 160.493 107.343 158.494 105.731 157.102C104.978 156.449 104.096 155.928 103.125 155.585V126.356C103.125 123.767 101.027 121.669 98.4379 121.669C95.8491 121.669 93.7504 123.767 93.7504 126.356ZM60.0479 167.121L83.7371 122.125C84.9365 119.847 87.7765 118.931 90.0804 120.081C92.3844 121.23 93.2798 124.008 92.0804 126.286L69.3942 169.378C70.4761 170.671 71.133 172.302 71.133 174.085C71.133 176.324 70.0974 178.323 68.4854 179.714C67.0822 180.93 65.2364 181.689 63.1984 181.689C61.1605 181.689 59.3147 180.93 57.9116 179.714C56.2996 178.323 55.2639 176.324 55.2639 174.085C55.2639 171.846 56.2996 169.847 57.9116 168.456C58.5419 167.91 59.2616 167.456 60.0479 167.121ZM24.7027 145.827C25.435 145.827 26.1426 145.925 26.8137 146.107L77.9255 113.474C80.067 112.107 82.9541 112.706 84.3741 114.813C85.794 116.92 85.2091 119.737 83.0675 121.104L32.6361 153.303C32.6368 153.346 32.6372 153.389 32.6372 153.432C32.6372 155.67 31.6016 157.669 29.9896 159.061C28.5864 160.276 26.7406 161.036 24.7027 161.036C22.6647 161.036 20.8189 160.276 19.4158 159.061C17.8038 157.669 16.7681 155.67 16.7681 153.432C16.7681 151.193 17.8038 149.194 19.4158 147.802C20.8189 146.587 22.6647 145.827 24.7027 145.827ZM32.7336 102.351C31.3305 101.136 29.4846 100.376 27.4467 100.376C25.4088 100.376 23.563 101.136 22.1598 102.351C20.5478 103.743 19.5121 105.742 19.5121 107.981C19.5121 110.22 20.5478 112.219 22.1598 113.61C23.563 114.825 25.4088 115.585 27.4467 115.585C29.4846 115.585 31.3305 114.825 32.7336 113.61C33.0939 113.299 33.4253 112.958 33.7228 112.59L76.2831 112.821C78.8029 112.834 80.8573 110.803 80.8717 108.283C80.8861 105.763 78.8551 103.709 76.3353 103.696L33.798 103.465C33.4815 103.062 33.1245 102.689 32.7336 102.351ZM11.9007 56.9831C13.9386 56.9831 15.7845 57.7427 17.1876 58.9582C18.5892 60.1678 19.555 61.8369 19.7833 63.7237L81.1506 94.4464C83.4169 95.581 84.2942 98.3173 83.1101 100.558C81.926 102.799 79.1289 103.696 76.8626 102.561L14.9808 71.5808C14.0355 71.9724 12.9958 72.1917 11.9007 72.1917C9.86276 72.1917 8.01697 71.4321 6.6138 70.2167C5.00183 68.8254 3.96612 66.8263 3.96612 64.5874C3.96612 62.3485 5.00183 60.3495 6.6138 58.9582C8.01697 57.7427 9.86276 56.9831 11.9007 56.9831ZM78.3507 55.5442C76.9475 54.3288 75.1017 53.5692 73.0637 53.5692C71.0258 53.5692 69.18 54.3288 67.7768 55.5442C66.1649 56.9355 65.1292 58.9346 65.1292 61.1735C65.1292 63.4124 66.1649 65.4114 67.7768 66.8027C68.5902 67.5073 69.5523 68.0587 70.6144 68.3977L83.3927 90.4748C84.6814 92.7012 87.5544 93.5033 89.81 92.2665C92.0655 91.0296 92.8493 88.2222 91.5607 85.9958L79.6358 65.3932C80.4918 64.1878 80.9983 62.7393 80.9983 61.1735C80.9983 58.9346 79.9627 56.9355 78.3507 55.5442Z" fill="url(#paint0_linear_363_346)"/>
<defs>
<linearGradient id="paint0_linear_363_346" x1="30.4329" y1="73.4096" x2="280.934" y2="89.8109" gradientUnits="userSpaceOnUse">
<stop stop-color="#FF17E8" stop-opacity="0.79"/>
<stop offset="0.177223" stop-color="#9F0AFF"/>
<stop offset="0.471439" stop-color="#4646FA"/>
<stop offset="0.770539" stop-color="#91F4F8"/>
</linearGradient>
</defs>
</svg>
