<svg width="214" height="100" viewBox="0 0 214 100" fill="none" xmlns="http://www.w3.org/2000/svg">
<path d="M45.8846 74.4567C45.7994 73.5973 45.4336 72.9297 44.7873 72.4538C44.141 71.978 43.2638 71.7401 42.1559 71.7401C41.4031 71.7401 40.7674 71.8466 40.2489 72.0597C39.7305 72.2656 39.3327 72.5533 39.0558 72.9226C38.7859 73.2919 38.6509 73.7109 38.6509 74.1797C38.6367 74.5703 38.7184 74.9112 38.896 75.2024C39.0806 75.4936 39.3327 75.7457 39.6523 75.9588C39.9719 76.1648 40.3413 76.3459 40.7603 76.5021C41.1793 76.6513 41.6268 76.7791 42.1026 76.8857L44.0629 77.3544C45.0146 77.5675 45.8881 77.8516 46.6836 78.2067C47.479 78.5618 48.168 78.9986 48.7504 79.517C49.3327 80.0355 49.7837 80.6463 50.1033 81.3494C50.43 82.0526 50.5969 82.8587 50.604 83.7678C50.5969 85.103 50.256 86.2607 49.5813 87.2408C48.9137 88.2138 47.9478 88.9702 46.6836 89.5099C45.4265 90.0426 43.9102 90.3089 42.1346 90.3089C40.3732 90.3089 38.8391 90.0391 37.5323 89.4993C36.2326 88.9595 35.217 88.1605 34.4854 87.1023C33.761 86.0369 33.381 84.7195 33.3455 83.1499H37.8093C37.859 83.8814 38.0685 84.4922 38.4379 84.9822C38.8143 85.4652 39.315 85.831 39.94 86.0795C40.5721 86.321 41.2859 86.4418 42.0813 86.4418C42.8626 86.4418 43.5408 86.3281 44.1161 86.1009C44.6985 85.8736 45.1495 85.5575 45.4691 85.1527C45.7887 84.7479 45.9485 84.2827 45.9485 83.7571C45.9485 83.267 45.8029 82.8551 45.5117 82.5213C45.2276 82.1875 44.8086 81.9034 44.2546 81.669C43.7077 81.4347 43.0366 81.2216 42.2411 81.0298L39.8654 80.4332C38.0259 79.9858 36.5735 79.2862 35.5082 78.3345C34.4428 77.3828 33.9137 76.1009 33.9208 74.4886C33.9137 73.1676 34.2653 72.0135 34.9755 71.0263C35.6928 70.0391 36.6765 69.2685 37.9265 68.7145C39.1765 68.1605 40.5969 67.8835 42.1879 67.8835C43.8072 67.8835 45.2205 68.1605 46.4279 68.7145C47.6424 69.2685 48.587 70.0391 49.2617 71.0263C49.9364 72.0135 50.2844 73.157 50.3058 74.4567H45.8846ZM71.9561 68.1818V90H67.9718L58.4796 76.2678H58.3198V90H53.7069V68.1818H57.7551L67.1728 81.9034H67.3645V68.1818H71.9561ZM75.7674 90V68.1818H90.4691V71.9851H80.3803V77.1839H89.7127V80.9872H80.3803V86.1967H90.5117V90H75.7674ZM97.8972 90H92.954L100.486 68.1818H106.431L113.952 90H109.009L103.544 73.1676H103.373L97.8972 90ZM97.5882 81.424H109.264V85.0249H97.5882V81.424ZM116.578 90V68.1818H121.191V77.8018H121.479L129.33 68.1818H134.859L126.763 77.951L134.955 90H129.437L123.46 81.0298L121.191 83.7997V90H116.578ZM148.922 74.4567C148.836 73.5973 148.471 72.9297 147.824 72.4538C147.178 71.978 146.301 71.7401 145.193 71.7401C144.44 71.7401 143.805 71.8466 143.286 72.0597C142.768 72.2656 142.37 72.5533 142.093 72.9226C141.823 73.2919 141.688 73.7109 141.688 74.1797C141.674 74.5703 141.756 74.9112 141.933 75.2024C142.118 75.4936 142.37 75.7457 142.689 75.9588C143.009 76.1648 143.378 76.3459 143.797 76.5021C144.216 76.6513 144.664 76.7791 145.14 76.8857L147.1 77.3544C148.052 77.5675 148.925 77.8516 149.721 78.2067C150.516 78.5618 151.205 78.9986 151.787 79.517C152.37 80.0355 152.821 80.6463 153.14 81.3494C153.467 82.0526 153.634 82.8587 153.641 83.7678C153.634 85.103 153.293 86.2607 152.618 87.2408C151.951 88.2138 150.985 88.9702 149.721 89.5099C148.464 90.0426 146.947 90.3089 145.172 90.3089C143.41 90.3089 141.876 90.0391 140.569 89.4993C139.27 88.9595 138.254 88.1605 137.523 87.1023C136.798 86.0369 136.418 84.7195 136.383 83.1499H140.846C140.896 83.8814 141.106 84.4922 141.475 84.9822C141.851 85.4652 142.352 85.831 142.977 86.0795C143.609 86.321 144.323 86.4418 145.118 86.4418C145.9 86.4418 146.578 86.3281 147.153 86.1009C147.736 85.8736 148.187 85.5575 148.506 85.1527C148.826 84.7479 148.986 84.2827 148.986 83.7571C148.986 83.267 148.84 82.8551 148.549 82.5213C148.265 82.1875 147.846 81.9034 147.292 81.669C146.745 81.4347 146.074 81.2216 145.278 81.0298L142.903 80.4332C141.063 79.9858 139.611 79.2862 138.545 78.3345C137.48 77.3828 136.951 76.1009 136.958 74.4886C136.951 73.1676 137.302 72.0135 138.013 71.0263C138.73 70.0391 139.714 69.2685 140.964 68.7145C142.214 68.1605 143.634 67.8835 145.225 67.8835C146.844 67.8835 148.258 68.1605 149.465 68.7145C150.68 69.2685 151.624 70.0391 152.299 71.0263C152.974 72.0135 153.322 73.157 153.343 74.4567H148.922Z" fill="white"/>
<path d="M14.9279 49V12.6364H29.9492C32.6718 12.6364 35.0214 13.1276 36.9982 14.1101C38.9869 15.0807 40.5198 16.4775 41.5969 18.3004C42.6741 20.1115 43.2127 22.2599 43.2127 24.7457C43.2127 27.267 42.6623 29.4096 41.5614 31.1733C40.4606 32.9252 38.8981 34.2628 36.8739 35.1861C34.8498 36.0975 32.4528 36.5533 29.6829 36.5533H20.1836V29.6286H28.0494C29.3751 29.6286 30.4819 29.4569 31.3697 29.1136C32.2693 28.7585 32.9499 28.2259 33.4116 27.5156C33.8732 26.7936 34.104 25.8703 34.104 24.7457C34.104 23.6212 33.8732 22.692 33.4116 21.9581C32.9499 21.2124 32.2693 20.656 31.3697 20.2891C30.4701 19.9103 29.3633 19.7209 28.0494 19.7209H23.717V49H14.9279ZM35.4002 32.3807L44.4556 49H34.8675L25.9897 32.3807H35.4002ZM45.5334 49V12.6364H70.8885V19.7741H54.3224V27.2315H69.5923V34.3871H54.3224V41.8622H70.8885V49H45.5334ZM93.5483 23.5384C93.4299 22.2363 92.9032 21.2242 91.968 20.5021C91.0447 19.7682 89.7249 19.4013 88.0085 19.4013C86.8722 19.4013 85.9252 19.5492 85.1676 19.8452C84.41 20.1411 83.8419 20.5495 83.4631 21.0703C83.0843 21.5793 82.889 22.1652 82.8771 22.8281C82.8535 23.3726 82.96 23.852 83.1967 24.2663C83.4453 24.6806 83.8004 25.0476 84.2621 25.3672C84.7356 25.675 85.3037 25.9472 85.9666 26.1839C86.6295 26.4207 87.3752 26.6278 88.2038 26.8054L91.3288 27.5156C93.1281 27.9062 94.7143 28.4271 96.0874 29.0781C97.4723 29.7292 98.6323 30.5045 99.5675 31.4041C100.514 32.3037 101.231 33.3395 101.716 34.5114C102.201 35.6832 102.45 36.9972 102.462 38.4531C102.45 40.7495 101.87 42.7204 100.722 44.3658C99.5734 46.0111 97.9221 47.2718 95.7678 48.1477C93.6252 49.0237 91.0388 49.4616 88.0085 49.4616C84.9664 49.4616 82.3149 49.0059 80.054 48.0945C77.7931 47.183 76.0353 45.7981 74.7805 43.9396C73.5258 42.0812 72.8807 39.7315 72.8452 36.8906H81.2614C81.3324 38.0625 81.6461 39.0391 82.2024 39.8203C82.7588 40.6016 83.5223 41.1934 84.4929 41.5959C85.4754 41.9983 86.6117 42.1996 87.902 42.1996C89.0857 42.1996 90.0919 42.0398 90.9205 41.7202C91.7609 41.4006 92.406 40.9567 92.8558 40.3885C93.3056 39.8203 93.5365 39.1693 93.5483 38.4354C93.5365 37.7488 93.3234 37.1629 92.9091 36.6776C92.4948 36.1804 91.8556 35.7543 90.9915 35.3991C90.1392 35.0322 89.0502 34.6948 87.7244 34.3871L83.9247 33.4993C80.776 32.7772 78.2962 31.6113 76.4851 30.0014C74.674 28.3797 73.7744 26.1899 73.7862 23.4318C73.7744 21.1828 74.3781 19.2119 75.5973 17.5192C76.8165 15.8265 78.5033 14.5066 80.6577 13.5597C82.812 12.6127 85.2682 12.1392 88.0263 12.1392C90.8435 12.1392 93.2879 12.6186 95.3594 13.5774C97.4427 14.5244 99.0585 15.8561 100.207 17.5724C101.355 19.2888 101.941 21.2775 101.964 23.5384H93.5483ZM137.408 25.8111H128.531C128.412 24.8996 128.17 24.0769 127.803 23.343C127.436 22.6091 126.95 21.9818 126.347 21.4609C125.743 20.9401 125.027 20.5436 124.198 20.2713C123.381 19.9872 122.476 19.8452 121.482 19.8452C119.718 19.8452 118.197 20.2772 116.918 21.1413C115.652 22.0054 114.675 23.2543 113.989 24.8878C113.314 26.5213 112.977 28.4981 112.977 30.8182C112.977 33.233 113.32 35.2571 114.006 36.8906C114.705 38.5123 115.681 39.7375 116.936 40.5661C118.203 41.3828 119.7 41.7912 121.428 41.7912C122.399 41.7912 123.281 41.6669 124.074 41.4183C124.879 41.1697 125.583 40.8087 126.187 40.3352C126.802 39.8499 127.305 39.264 127.696 38.5774C128.098 37.879 128.377 37.0919 128.531 36.2159L137.408 36.2692C137.254 37.879 136.787 39.4652 136.006 41.0277C135.236 42.5902 134.177 44.0166 132.827 45.3068C131.478 46.5852 129.833 47.6032 127.891 48.3608C125.962 49.1184 123.748 49.4972 121.251 49.4972C117.96 49.4972 115.013 48.7751 112.408 47.331C109.816 45.875 107.768 43.7562 106.265 40.9744C104.762 38.1927 104.01 34.8073 104.01 30.8182C104.01 26.8172 104.773 23.4259 106.3 20.6442C107.827 17.8625 109.893 15.7495 112.497 14.3054C115.101 12.8613 118.019 12.1392 121.251 12.1392C123.452 12.1392 125.488 12.447 127.359 13.0625C129.229 13.6662 130.874 14.554 132.295 15.7259C133.715 16.8859 134.869 18.3123 135.757 20.005C136.645 21.6977 137.195 23.633 137.408 25.8111ZM161.937 12.6364H170.708V36.0916C170.708 38.8023 170.063 41.1638 168.773 43.1761C167.483 45.1766 165.683 46.7273 163.375 47.8281C161.067 48.9171 158.386 49.4616 155.332 49.4616C152.242 49.4616 149.544 48.9171 147.235 47.8281C144.927 46.7273 143.134 45.1766 141.855 43.1761C140.577 41.1638 139.938 38.8023 139.938 36.0916V12.6364H148.727V35.3281C148.727 36.5829 148.999 37.7015 149.544 38.6839C150.1 39.6664 150.875 40.4358 151.869 40.9922C152.864 41.5485 154.018 41.8267 155.332 41.8267C156.646 41.8267 157.794 41.5485 158.776 40.9922C159.771 40.4358 160.546 39.6664 161.102 38.6839C161.659 37.7015 161.937 36.5829 161.937 35.3281V12.6364ZM173.717 49V12.6364H199.072V19.7741H182.506V27.2315H197.776V34.3871H182.506V41.8622H199.072V49H173.717Z" fill="white"/>
<ellipse cx="2.16215" cy="14.2916" rx="2.16215" ry="14.2916" transform="matrix(-0.136225 -0.990678 0.989841 -0.142182 169.589 83.9336)" fill="white"/>
<ellipse cx="2.16215" cy="14.2916" rx="2.16215" ry="14.2916" transform="matrix(-0.136225 -0.990678 0.989841 -0.142182 169.589 83.9336)" fill="white"/>
<ellipse cx="2.16215" cy="14.2916" rx="2.16215" ry="14.2916" transform="matrix(-0.136225 -0.990678 0.989841 -0.142182 169.589 83.9336)" fill="white"/>
<ellipse cx="2.11727" cy="14.5945" rx="2.11727" ry="14.5945" transform="matrix(0.989841 0.142182 -0.136225 0.990678 183.333 65)" fill="white"/>
<ellipse cx="2.11727" cy="14.5945" rx="2.11727" ry="14.5945" transform="matrix(0.989841 0.142182 -0.136225 0.990678 183.333 65)" fill="white"/>
<ellipse cx="2.11727" cy="14.5945" rx="2.11727" ry="14.5945" transform="matrix(0.989841 0.142182 -0.136225 0.990678 183.333 65)" fill="white"/>
</svg>
