<svg width="237" height="55" viewBox="0 0 237 55" fill="none" xmlns="http://www.w3.org/2000/svg">
<path d="M14.4 35.48C12.6667 35.48 11.04 35.32 9.52 35C8 34.7067 6.65333 34.2133 5.48 33.52C4.33333 32.8267 3.42667 31.92 2.76 30.8C2.09333 29.6533 1.76 28.2533 1.76 26.6C1.76 26.4933 1.76 26.3733 1.76 26.24C1.76 26.1067 1.77333 26 1.8 25.92H8.72C8.72 26 8.70667 26.1067 8.68 26.24C8.68 26.3467 8.68 26.44 8.68 26.52C8.68 27.3733 8.89333 28.0667 9.32 28.6C9.77333 29.1067 10.4 29.48 11.2 29.72C12 29.9333 12.9333 30.04 14 30.04C14.5867 30.04 15.1333 30.0133 15.64 29.96C16.1467 29.9067 16.6 29.8133 17 29.68C17.4 29.5467 17.7467 29.3867 18.04 29.2C18.36 28.9867 18.5867 28.7467 18.72 28.48C18.88 28.1867 18.96 27.8533 18.96 27.48C18.96 26.8667 18.72 26.36 18.24 25.96C17.7867 25.56 17.16 25.2267 16.36 24.96C15.5867 24.6933 14.7067 24.44 13.72 24.2C12.7333 23.96 11.7067 23.7067 10.64 23.44C9.57333 23.1733 8.54667 22.84 7.56 22.44C6.57333 22.04 5.68 21.5333 4.88 20.92C4.10667 20.3067 3.48 19.5467 3 18.64C2.54667 17.7067 2.32 16.5867 2.32 15.28C2.32 13.84 2.62667 12.6 3.24 11.56C3.85333 10.4933 4.69333 9.62667 5.76 8.96C6.85333 8.29333 8.10667 7.81333 9.52 7.52C10.9333 7.2 12.44 7.04 14.04 7.04C15.6133 7.04 17.08 7.2 18.44 7.52C19.8267 7.84 21.0533 8.34667 22.12 9.04C23.1867 9.70667 24.0133 10.56 24.6 11.6C25.2133 12.6133 25.5333 13.84 25.56 15.28V15.76H18.68V15.48C18.68 14.8667 18.5067 14.3333 18.16 13.88C17.84 13.4 17.3467 13.0267 16.68 12.76C16.0133 12.4667 15.1867 12.32 14.2 12.32C13.2133 12.32 12.3733 12.4133 11.68 12.6C11.0133 12.7867 10.4933 13.0533 10.12 13.4C9.77333 13.7467 9.6 14.16 9.6 14.64C9.6 15.2267 9.82667 15.7067 10.28 16.08C10.76 16.4533 11.4 16.7733 12.2 17.04C13 17.3067 13.8933 17.56 14.88 17.8C15.8667 18.0133 16.88 18.2533 17.92 18.52C18.9867 18.76 20.0133 19.08 21 19.48C21.9867 19.8533 22.88 20.3467 23.68 20.96C24.48 21.5467 25.1067 22.28 25.56 23.16C26.04 24.04 26.28 25.1067 26.28 26.36C26.28 28.5467 25.76 30.3067 24.72 31.64C23.7067 32.9733 22.2933 33.9467 20.48 34.56C18.6933 35.1733 16.6667 35.48 14.4 35.48ZM29.5706 35V13.92H34.9706L35.4506 16.92H35.7306C36.2106 16.2 36.784 15.5733 37.4506 15.04C38.144 14.5067 38.904 14.1067 39.7306 13.84C40.5573 13.5733 41.4373 13.44 42.3706 13.44C43.8106 13.44 45.0373 13.7333 46.0506 14.32C47.064 14.88 47.8373 15.7467 48.3706 16.92H48.6506C49.1306 16.2 49.704 15.5733 50.3706 15.04C51.064 14.5067 51.824 14.1067 52.6506 13.84C53.504 13.5733 54.384 13.44 55.2906 13.44C56.7573 13.44 57.9973 13.72 59.0106 14.28C60.024 14.8133 60.7973 15.64 61.3306 16.76C61.8906 17.8533 62.1706 19.2533 62.1706 20.96V35H55.6106V21.96C55.6106 21.3733 55.544 20.88 55.4106 20.48C55.2773 20.0533 55.0906 19.7067 54.8506 19.44C54.6106 19.1467 54.304 18.9333 53.9306 18.8C53.5573 18.6667 53.1573 18.6 52.7306 18.6C52.0373 18.6 51.4106 18.7867 50.8506 19.16C50.3173 19.5067 49.904 19.9867 49.6106 20.6C49.3173 21.1867 49.1706 21.88 49.1706 22.68V35H42.6106V21.96C42.6106 21.3733 42.544 20.88 42.4106 20.48C42.2773 20.0533 42.0906 19.7067 41.8506 19.44C41.6106 19.1467 41.304 18.9333 40.9306 18.8C40.5573 18.6667 40.1573 18.6 39.7306 18.6C39.0373 18.6 38.4106 18.7867 37.8506 19.16C37.3173 19.5067 36.8906 19.9867 36.5706 20.6C36.2773 21.1867 36.1306 21.88 36.1306 22.68V35H29.5706ZM72.1116 35.48C71.2316 35.48 70.3649 35.3867 69.5116 35.2C68.6849 35.04 67.9249 34.7467 67.2316 34.32C66.5649 33.8667 66.0316 33.2533 65.6316 32.48C65.2316 31.7067 65.0316 30.7333 65.0316 29.56C65.0316 28.04 65.3516 26.8 65.9916 25.84C66.6316 24.88 67.5516 24.1333 68.7516 23.6C69.9782 23.04 71.4449 22.6533 73.1516 22.44C74.8849 22.2267 76.8182 22.12 78.9516 22.12V20.8C78.9516 20.1867 78.8316 19.68 78.5916 19.28C78.3516 18.8533 77.9916 18.5333 77.5116 18.32C77.0582 18.08 76.4449 17.96 75.6716 17.96C74.9782 17.96 74.3649 18.04 73.8316 18.2C73.3249 18.36 72.9382 18.6 72.6716 18.92C72.4049 19.2133 72.2716 19.5733 72.2716 20V20.36H65.8716C65.8449 20.2267 65.8316 20.12 65.8316 20.04C65.8316 19.9333 65.8316 19.8 65.8316 19.64C65.8316 18.3867 66.2182 17.2933 66.9916 16.36C67.7916 15.4267 68.9249 14.7067 70.3916 14.2C71.8582 13.6933 73.6316 13.44 75.7116 13.44C77.6582 13.44 79.3516 13.68 80.7916 14.16C82.2582 14.64 83.4049 15.3733 84.2316 16.36C85.0849 17.3467 85.5116 18.64 85.5116 20.24V29.24C85.5116 29.6933 85.6316 30.0533 85.8716 30.32C86.1382 30.5867 86.4582 30.72 86.8316 30.72H88.1916V34.76C87.8982 34.8933 87.4316 35.04 86.7916 35.2C86.1782 35.3867 85.4316 35.48 84.5516 35.48C83.6449 35.48 82.8449 35.36 82.1516 35.12C81.4849 34.9067 80.9249 34.6 80.4716 34.2C80.0449 33.7733 79.7516 33.28 79.5916 32.72H79.3116C78.8049 33.2533 78.2049 33.7333 77.5116 34.16C76.8449 34.5867 76.0582 34.9067 75.1516 35.12C74.2716 35.36 73.2582 35.48 72.1116 35.48ZM74.5516 30.96C75.1916 30.96 75.7782 30.8667 76.3116 30.68C76.8449 30.4933 77.2982 30.24 77.6716 29.92C78.0716 29.5733 78.3782 29.16 78.5916 28.68C78.8316 28.2 78.9516 27.68 78.9516 27.12V25.72C77.4316 25.72 76.1249 25.8267 75.0316 26.04C73.9382 26.2533 73.0982 26.5867 72.5116 27.04C71.9249 27.4933 71.6316 28.0667 71.6316 28.76C71.6316 29.2667 71.7516 29.6933 71.9916 30.04C72.2582 30.36 72.6049 30.6 73.0316 30.76C73.4582 30.8933 73.9649 30.96 74.5516 30.96ZM90.08 35V13.92H95.48L95.96 17.16H96.24C96.56 16.44 96.9467 15.8 97.4 15.24C97.88 14.6533 98.4533 14.2 99.12 13.88C99.8133 13.56 100.573 13.4 101.4 13.4C101.88 13.4 102.32 13.4533 102.72 13.56C103.12 13.64 103.413 13.7333 103.6 13.84V19.56H101.52C100.693 19.56 99.96 19.68 99.32 19.92C98.7067 20.1333 98.2 20.48 97.8 20.96C97.4 21.4133 97.1067 21.9733 96.92 22.64C96.7333 23.3067 96.64 24.08 96.64 24.96V35H90.08ZM112.969 35.48C111.609 35.48 110.449 35.28 109.489 34.88C108.556 34.4533 107.849 33.8267 107.369 33C106.916 32.1733 106.689 31.1733 106.689 30V18.68H103.929V13.92H106.889L108.249 7.76H113.209V13.92H117.329V18.68H113.209V28.4C113.209 29.1467 113.356 29.72 113.649 30.12C113.942 30.52 114.476 30.72 115.249 30.72H117.329V34.8C116.982 34.9067 116.542 35.0133 116.009 35.12C115.502 35.2533 114.982 35.3467 114.449 35.4C113.916 35.4533 113.422 35.48 112.969 35.48ZM133.32 35.48C130.36 35.48 127.84 34.9733 125.76 33.96C123.706 32.92 122.146 31.3467 121.08 29.24C120.013 27.1333 119.48 24.4667 119.48 21.24C119.48 16.4933 120.666 12.9467 123.04 10.6C125.44 8.22666 128.866 7.04 133.32 7.04C135.8 7.04 138 7.46666 139.92 8.32C141.84 9.14666 143.333 10.4 144.4 12.08C145.493 13.7333 146.04 15.8 146.04 18.28H139.04C139.04 17.1067 138.8 16.1067 138.32 15.28C137.866 14.4267 137.213 13.7733 136.36 13.32C135.533 12.8667 134.52 12.64 133.32 12.64C131.826 12.64 130.6 12.9467 129.64 13.56C128.68 14.1733 127.973 15.0533 127.52 16.2C127.066 17.3467 126.84 18.7333 126.84 20.36V22.16C126.84 23.7867 127.066 25.1867 127.52 26.36C127.973 27.5067 128.666 28.3867 129.6 29C130.56 29.5867 131.786 29.88 133.28 29.88C134.56 29.88 135.64 29.6667 136.52 29.24C137.426 28.8133 138.106 28.1867 138.56 27.36C139.04 26.5067 139.28 25.4933 139.28 24.32H146.04C146.04 26.8 145.506 28.8667 144.44 30.52C143.4 32.1733 141.92 33.4133 140 34.24C138.106 35.0667 135.88 35.48 133.32 35.48ZM163.158 35.48C160.144 35.48 157.558 34.96 155.398 33.92C153.264 32.8533 151.624 31.2667 150.478 29.16C149.331 27.0533 148.758 24.4133 148.758 21.24C148.758 18.0667 149.331 15.44 150.478 13.36C151.624 11.2533 153.264 9.68 155.398 8.64C157.558 7.57333 160.144 7.04 163.158 7.04C166.171 7.04 168.744 7.57333 170.878 8.64C173.038 9.68 174.691 11.2533 175.838 13.36C176.984 15.44 177.558 18.0667 177.558 21.24C177.558 24.4133 176.984 27.0533 175.838 29.16C174.691 31.2667 173.038 32.8533 170.878 33.92C168.744 34.96 166.171 35.48 163.158 35.48ZM163.158 29.88C164.304 29.88 165.318 29.7067 166.198 29.36C167.078 29.0133 167.811 28.5067 168.398 27.84C169.011 27.1733 169.464 26.36 169.758 25.4C170.051 24.44 170.198 23.36 170.198 22.16V20.4C170.198 19.1733 170.051 18.08 169.758 17.12C169.464 16.16 169.011 15.3467 168.398 14.68C167.811 14.0133 167.078 13.5067 166.198 13.16C165.318 12.8133 164.304 12.64 163.158 12.64C161.984 12.64 160.958 12.8133 160.078 13.16C159.198 13.5067 158.464 14.0133 157.878 14.68C157.291 15.3467 156.851 16.16 156.558 17.12C156.264 18.08 156.118 19.1733 156.118 20.4V22.16C156.118 23.36 156.264 24.44 156.558 25.4C156.851 26.36 157.291 27.1733 157.878 27.84C158.464 28.5067 159.198 29.0133 160.078 29.36C160.958 29.7067 161.984 29.88 163.158 29.88ZM181.541 35V7.52H197.501C199.527 7.52 201.221 7.90667 202.581 8.68C203.941 9.42666 204.954 10.4667 205.621 11.8C206.314 13.1067 206.661 14.5733 206.661 16.2C206.661 17.96 206.247 19.5333 205.421 20.92C204.621 22.28 203.487 23.3467 202.021 24.12L207.541 35H199.541L194.981 25.32H188.701V35H181.541ZM188.701 20H196.101C197.087 20 197.874 19.68 198.461 19.04C199.074 18.3733 199.381 17.4933 199.381 16.4C199.381 15.68 199.247 15.0667 198.981 14.56C198.714 14.0533 198.341 13.6667 197.861 13.4C197.381 13.1067 196.794 12.96 196.101 12.96H188.701V20ZM210.821 35V7.52H233.501V13.12H217.981V18.28H231.541V23.76H217.981V29.4H233.781V35H210.821Z" fill="white"/>
<rect x="3" y="44" width="126" height="11" fill="white"/>
<circle cx="133" cy="21" r="4" fill="white"/>
<path d="M143.79 53.12C143.09 53.12 142.497 52.99 142.01 52.73C141.53 52.47 141.163 52.0767 140.91 51.55C140.663 51.0233 140.54 50.3633 140.54 49.57C140.54 48.3833 140.827 47.4967 141.4 46.91C141.973 46.3167 142.777 46.02 143.81 46.02C144.403 46.02 144.923 46.1167 145.37 46.31C145.823 46.4967 146.177 46.78 146.43 47.16C146.69 47.5333 146.82 48.01 146.82 48.59H146.02C146.02 48.1567 145.93 47.8033 145.75 47.53C145.57 47.25 145.313 47.0433 144.98 46.91C144.653 46.77 144.26 46.7 143.8 46.7C143.307 46.7 142.877 46.7967 142.51 46.99C142.143 47.1833 141.86 47.4867 141.66 47.9C141.46 48.3067 141.36 48.84 141.36 49.5V49.71C141.36 50.3567 141.46 50.88 141.66 51.28C141.86 51.68 142.143 51.9733 142.51 52.16C142.877 52.3467 143.31 52.44 143.81 52.44C144.27 52.44 144.667 52.3733 145 52.24C145.333 52.1 145.59 51.8933 145.77 51.62C145.95 51.34 146.04 50.9833 146.04 50.55H146.82C146.82 51.1367 146.687 51.62 146.42 52C146.16 52.38 145.803 52.6633 145.35 52.85C144.897 53.03 144.377 53.12 143.79 53.12ZM148.374 53V45.77H149.094V53H148.374ZM152.933 53.12C152.426 53.12 151.993 53.0233 151.633 52.83C151.28 52.63 151.01 52.3267 150.823 51.92C150.643 51.5133 150.553 50.9967 150.553 50.37C150.553 49.7367 150.643 49.22 150.823 48.82C151.01 48.4133 151.28 48.1133 151.633 47.92C151.993 47.72 152.426 47.62 152.933 47.62C153.453 47.62 153.886 47.72 154.233 47.92C154.586 48.1133 154.853 48.4133 155.033 48.82C155.22 49.22 155.313 49.7367 155.313 50.37C155.313 50.9967 155.22 51.5133 155.033 51.92C154.853 52.3267 154.586 52.63 154.233 52.83C153.886 53.0233 153.453 53.12 152.933 53.12ZM152.933 52.51C153.286 52.51 153.583 52.44 153.823 52.3C154.063 52.16 154.246 51.9433 154.373 51.65C154.5 51.35 154.563 50.9633 154.563 50.49V50.25C154.563 49.7767 154.5 49.3933 154.373 49.1C154.246 48.8 154.063 48.58 153.823 48.44C153.583 48.3 153.286 48.23 152.933 48.23C152.58 48.23 152.283 48.3 152.043 48.44C151.803 48.58 151.62 48.8 151.493 49.1C151.366 49.3933 151.303 49.7767 151.303 50.25V50.49C151.303 50.9633 151.366 51.35 151.493 51.65C151.62 51.9433 151.803 52.16 152.043 52.3C152.283 52.44 152.58 52.51 152.933 52.51ZM158.38 53.12C157.88 53.12 157.476 52.9933 157.17 52.74C156.863 52.4867 156.71 52.0433 156.71 51.41V47.74H157.43V51.34C157.43 51.5733 157.46 51.7633 157.52 51.91C157.58 52.0567 157.663 52.1733 157.77 52.26C157.876 52.34 158 52.3967 158.14 52.43C158.286 52.4633 158.443 52.48 158.61 52.48C158.876 52.48 159.126 52.4167 159.36 52.29C159.6 52.1567 159.793 51.97 159.94 51.73C160.086 51.4833 160.16 51.19 160.16 50.85V47.74H160.88V53H160.32L160.24 52.17H160.17C160.023 52.41 159.856 52.6 159.67 52.74C159.49 52.8733 159.29 52.97 159.07 53.03C158.856 53.09 158.626 53.12 158.38 53.12ZM164.417 53.12C163.984 53.12 163.61 53.0233 163.297 52.83C162.984 52.6367 162.744 52.3367 162.577 51.93C162.417 51.5167 162.337 50.98 162.337 50.32C162.337 49.7 162.42 49.1933 162.587 48.8C162.754 48.4 162.99 48.1033 163.297 47.91C163.61 47.7167 163.977 47.62 164.397 47.62C164.624 47.62 164.837 47.6467 165.037 47.7C165.237 47.7533 165.417 47.84 165.577 47.96C165.737 48.0733 165.877 48.2267 165.997 48.42H166.057V45.77H166.777V53H166.217L166.137 52.23H166.067C165.88 52.53 165.64 52.7533 165.347 52.9C165.06 53.0467 164.75 53.12 164.417 53.12ZM164.537 52.49C164.897 52.49 165.187 52.41 165.407 52.25C165.634 52.09 165.797 51.86 165.897 51.56C166.004 51.26 166.057 50.8933 166.057 50.46V50.28C166.057 49.8667 166.014 49.5267 165.927 49.26C165.847 48.9933 165.734 48.7867 165.587 48.64C165.447 48.4933 165.29 48.3933 165.117 48.34C164.944 48.28 164.767 48.25 164.587 48.25C164.254 48.25 163.974 48.32 163.747 48.46C163.527 48.5933 163.36 48.8067 163.247 49.1C163.14 49.3933 163.087 49.7767 163.087 50.25V50.5C163.087 50.9933 163.147 51.3867 163.267 51.68C163.387 51.9667 163.554 52.1733 163.767 52.3C163.987 52.4267 164.244 52.49 164.537 52.49ZM171.233 53V46.14H176.483V46.82H172.023V49.14H176.043V49.83H172.023V52.32H176.543V53H171.233ZM178.16 53V47.74H178.73L178.8 48.57H178.87C179.016 48.33 179.183 48.1433 179.37 48.01C179.556 47.87 179.756 47.77 179.97 47.71C180.19 47.65 180.423 47.62 180.67 47.62C181.003 47.62 181.293 47.6767 181.54 47.79C181.793 47.8967 181.99 48.0733 182.13 48.32C182.27 48.5667 182.34 48.9033 182.34 49.33V53H181.62V49.4C181.62 49.1667 181.59 48.9767 181.53 48.83C181.47 48.6833 181.386 48.57 181.28 48.49C181.173 48.4033 181.046 48.3433 180.9 48.31C180.76 48.2767 180.603 48.26 180.43 48.26C180.163 48.26 179.91 48.3267 179.67 48.46C179.436 48.5867 179.246 48.77 179.1 49.01C178.953 49.25 178.88 49.5433 178.88 49.89V53H178.16ZM184.937 54.82C184.684 54.82 184.447 54.7633 184.227 54.65C184.014 54.5433 183.844 54.39 183.717 54.19C183.59 53.9967 183.527 53.77 183.527 53.51C183.527 53.2167 183.604 52.9667 183.757 52.76C183.917 52.5533 184.117 52.4 184.357 52.3C184.184 52.2267 184.05 52.1167 183.957 51.97C183.864 51.8233 183.817 51.6633 183.817 51.49C183.817 51.2633 183.9 51.07 184.067 50.91C184.234 50.7433 184.437 50.6333 184.677 50.58C184.457 50.4333 184.28 50.2467 184.147 50.02C184.02 49.7933 183.957 49.55 183.957 49.29C183.957 48.9633 184.034 48.6767 184.187 48.43C184.34 48.1767 184.57 47.98 184.877 47.84C185.19 47.6933 185.58 47.62 186.047 47.62C186.267 47.62 186.47 47.6367 186.657 47.67C186.85 47.7033 187.024 47.7533 187.177 47.82C187.41 47.7333 187.59 47.61 187.717 47.45C187.844 47.2833 187.927 47.1 187.967 46.9H188.687C188.68 47.0867 188.634 47.2667 188.547 47.44C188.46 47.6133 188.34 47.76 188.187 47.88C188.034 48 187.85 48.0767 187.637 48.11C187.81 48.27 187.937 48.45 188.017 48.65C188.097 48.85 188.137 49.0633 188.137 49.29C188.137 49.6033 188.06 49.8867 187.907 50.14C187.76 50.3867 187.534 50.5833 187.227 50.73C186.927 50.8767 186.54 50.95 186.067 50.95H185.237C185.037 50.95 184.874 50.99 184.747 51.07C184.62 51.1433 184.557 51.27 184.557 51.45C184.557 51.6033 184.624 51.7233 184.757 51.81C184.89 51.8967 185.057 51.94 185.257 51.94H187.317C187.704 51.94 188.017 52.07 188.257 52.33C188.504 52.59 188.627 52.9167 188.627 53.31C188.627 53.59 188.557 53.8433 188.417 54.07C188.277 54.3033 188.084 54.4867 187.837 54.62C187.597 54.7533 187.314 54.82 186.987 54.82H184.937ZM185.097 54.25H186.967C187.14 54.25 187.297 54.2133 187.437 54.14C187.577 54.0667 187.687 53.9633 187.767 53.83C187.854 53.7033 187.897 53.5667 187.897 53.42C187.897 53.1667 187.824 52.9633 187.677 52.81C187.53 52.6567 187.347 52.58 187.127 52.58H185.097C184.87 52.58 184.674 52.6633 184.507 52.83C184.34 52.99 184.257 53.1867 184.257 53.42C184.257 53.6733 184.337 53.8733 184.497 54.02C184.664 54.1733 184.864 54.25 185.097 54.25ZM186.047 50.38C186.514 50.38 186.857 50.2833 187.077 50.09C187.304 49.89 187.417 49.6233 187.417 49.29C187.417 48.95 187.304 48.6833 187.077 48.49C186.857 48.29 186.514 48.19 186.047 48.19C185.594 48.19 185.254 48.29 185.027 48.49C184.8 48.6833 184.687 48.95 184.687 49.29C184.687 49.4967 184.737 49.6833 184.837 49.85C184.937 50.0167 185.087 50.1467 185.287 50.24C185.494 50.3333 185.747 50.38 186.047 50.38ZM189.788 46.66V45.77H190.508V46.66H189.788ZM189.788 53V47.74H190.508V53H189.788ZM192.266 53V47.74H192.836L192.906 48.57H192.976C193.123 48.33 193.29 48.1433 193.476 48.01C193.663 47.87 193.863 47.77 194.076 47.71C194.296 47.65 194.53 47.62 194.776 47.62C195.11 47.62 195.4 47.6767 195.646 47.79C195.9 47.8967 196.096 48.0733 196.236 48.32C196.376 48.5667 196.446 48.9033 196.446 49.33V53H195.726V49.4C195.726 49.1667 195.696 48.9767 195.636 48.83C195.576 48.6833 195.493 48.57 195.386 48.49C195.28 48.4033 195.153 48.3433 195.006 48.31C194.866 48.2767 194.71 48.26 194.536 48.26C194.27 48.26 194.016 48.3267 193.776 48.46C193.543 48.5867 193.353 48.77 193.206 49.01C193.06 49.25 192.986 49.5433 192.986 49.89V53H192.266ZM200.174 53.12C199.674 53.12 199.25 53.0233 198.904 52.83C198.557 52.63 198.294 52.3267 198.114 51.92C197.934 51.5133 197.844 50.9967 197.844 50.37C197.844 49.7367 197.934 49.22 198.114 48.82C198.294 48.4133 198.56 48.1133 198.914 47.92C199.267 47.72 199.707 47.62 200.234 47.62C200.72 47.62 201.127 47.7167 201.454 47.91C201.787 48.1033 202.037 48.3833 202.204 48.75C202.377 49.1167 202.464 49.5667 202.464 50.1V50.56H198.594C198.594 51.02 198.657 51.3967 198.784 51.69C198.91 51.9833 199.09 52.1967 199.324 52.33C199.564 52.4567 199.857 52.52 200.204 52.52C200.457 52.52 200.677 52.4867 200.864 52.42C201.057 52.3533 201.214 52.2633 201.334 52.15C201.46 52.03 201.557 51.89 201.624 51.73C201.69 51.57 201.724 51.4033 201.724 51.23H202.424C202.424 51.49 202.374 51.7367 202.274 51.97C202.18 52.1967 202.04 52.3967 201.854 52.57C201.674 52.7433 201.444 52.88 201.164 52.98C200.884 53.0733 200.554 53.12 200.174 53.12ZM198.594 49.99H201.714C201.714 49.6567 201.674 49.38 201.594 49.16C201.52 48.9333 201.417 48.7533 201.284 48.62C201.15 48.48 200.99 48.38 200.804 48.32C200.624 48.26 200.42 48.23 200.194 48.23C199.867 48.23 199.587 48.2933 199.354 48.42C199.12 48.54 198.94 48.73 198.814 48.99C198.694 49.25 198.62 49.5833 198.594 49.99ZM205.934 53.12C205.434 53.12 205.011 53.0233 204.664 52.83C204.317 52.63 204.054 52.3267 203.874 51.92C203.694 51.5133 203.604 50.9967 203.604 50.37C203.604 49.7367 203.694 49.22 203.874 48.82C204.054 48.4133 204.321 48.1133 204.674 47.92C205.027 47.72 205.467 47.62 205.994 47.62C206.481 47.62 206.887 47.7167 207.214 47.91C207.547 48.1033 207.797 48.3833 207.964 48.75C208.137 49.1167 208.224 49.5667 208.224 50.1V50.56H204.354C204.354 51.02 204.417 51.3967 204.544 51.69C204.671 51.9833 204.851 52.1967 205.084 52.33C205.324 52.4567 205.617 52.52 205.964 52.52C206.217 52.52 206.437 52.4867 206.624 52.42C206.817 52.3533 206.974 52.2633 207.094 52.15C207.221 52.03 207.317 51.89 207.384 51.73C207.451 51.57 207.484 51.4033 207.484 51.23H208.184C208.184 51.49 208.134 51.7367 208.034 51.97C207.941 52.1967 207.801 52.3967 207.614 52.57C207.434 52.7433 207.204 52.88 206.924 52.98C206.644 53.0733 206.314 53.12 205.934 53.12ZM204.354 49.99H207.474C207.474 49.6567 207.434 49.38 207.354 49.16C207.281 48.9333 207.177 48.7533 207.044 48.62C206.911 48.48 206.751 48.38 206.564 48.32C206.384 48.26 206.181 48.23 205.954 48.23C205.627 48.23 205.347 48.2933 205.114 48.42C204.881 48.54 204.701 48.73 204.574 48.99C204.454 49.25 204.381 49.5833 204.354 49.99ZM209.664 53V47.74H210.244L210.304 48.62H210.374C210.421 48.46 210.491 48.3033 210.584 48.15C210.677 47.9967 210.804 47.87 210.964 47.77C211.124 47.67 211.327 47.62 211.574 47.62C211.667 47.62 211.754 47.63 211.834 47.65C211.914 47.6633 211.974 47.6767 212.014 47.69V48.35H211.704C211.471 48.35 211.271 48.3933 211.104 48.48C210.937 48.56 210.801 48.6767 210.694 48.83C210.587 48.9833 210.507 49.16 210.454 49.36C210.407 49.5533 210.384 49.7567 210.384 49.97V53H209.664ZM213.188 46.66V45.77H213.908V46.66H213.188ZM213.188 53V47.74H213.908V53H213.188ZM215.667 53V47.74H216.237L216.307 48.57H216.377C216.523 48.33 216.69 48.1433 216.877 48.01C217.063 47.87 217.263 47.77 217.477 47.71C217.697 47.65 217.93 47.62 218.177 47.62C218.51 47.62 218.8 47.6767 219.047 47.79C219.3 47.8967 219.497 48.0733 219.637 48.32C219.777 48.5667 219.847 48.9033 219.847 49.33V53H219.127V49.4C219.127 49.1667 219.097 48.9767 219.037 48.83C218.977 48.6833 218.893 48.57 218.787 48.49C218.68 48.4033 218.553 48.3433 218.407 48.31C218.267 48.2767 218.11 48.26 217.937 48.26C217.67 48.26 217.417 48.3267 217.177 48.46C216.943 48.5867 216.753 48.77 216.607 49.01C216.46 49.25 216.387 49.5433 216.387 49.89V53H215.667ZM222.444 54.82C222.191 54.82 221.954 54.7633 221.734 54.65C221.521 54.5433 221.351 54.39 221.224 54.19C221.097 53.9967 221.034 53.77 221.034 53.51C221.034 53.2167 221.111 52.9667 221.264 52.76C221.424 52.5533 221.624 52.4 221.864 52.3C221.691 52.2267 221.557 52.1167 221.464 51.97C221.371 51.8233 221.324 51.6633 221.324 51.49C221.324 51.2633 221.407 51.07 221.574 50.91C221.741 50.7433 221.944 50.6333 222.184 50.58C221.964 50.4333 221.787 50.2467 221.654 50.02C221.527 49.7933 221.464 49.55 221.464 49.29C221.464 48.9633 221.541 48.6767 221.694 48.43C221.847 48.1767 222.077 47.98 222.384 47.84C222.697 47.6933 223.087 47.62 223.554 47.62C223.774 47.62 223.977 47.6367 224.164 47.67C224.357 47.7033 224.531 47.7533 224.684 47.82C224.917 47.7333 225.097 47.61 225.224 47.45C225.351 47.2833 225.434 47.1 225.474 46.9H226.194C226.187 47.0867 226.141 47.2667 226.054 47.44C225.967 47.6133 225.847 47.76 225.694 47.88C225.541 48 225.357 48.0767 225.144 48.11C225.317 48.27 225.444 48.45 225.524 48.65C225.604 48.85 225.644 49.0633 225.644 49.29C225.644 49.6033 225.567 49.8867 225.414 50.14C225.267 50.3867 225.041 50.5833 224.734 50.73C224.434 50.8767 224.047 50.95 223.574 50.95H222.744C222.544 50.95 222.381 50.99 222.254 51.07C222.127 51.1433 222.064 51.27 222.064 51.45C222.064 51.6033 222.131 51.7233 222.264 51.81C222.397 51.8967 222.564 51.94 222.764 51.94H224.824C225.211 51.94 225.524 52.07 225.764 52.33C226.011 52.59 226.134 52.9167 226.134 53.31C226.134 53.59 226.064 53.8433 225.924 54.07C225.784 54.3033 225.591 54.4867 225.344 54.62C225.104 54.7533 224.821 54.82 224.494 54.82H222.444ZM222.604 54.25H224.474C224.647 54.25 224.804 54.2133 224.944 54.14C225.084 54.0667 225.194 53.9633 225.274 53.83C225.361 53.7033 225.404 53.5667 225.404 53.42C225.404 53.1667 225.331 52.9633 225.184 52.81C225.037 52.6567 224.854 52.58 224.634 52.58H222.604C222.377 52.58 222.181 52.6633 222.014 52.83C221.847 52.99 221.764 53.1867 221.764 53.42C221.764 53.6733 221.844 53.8733 222.004 54.02C222.171 54.1733 222.371 54.25 222.604 54.25ZM223.554 50.38C224.021 50.38 224.364 50.2833 224.584 50.09C224.811 49.89 224.924 49.6233 224.924 49.29C224.924 48.95 224.811 48.6833 224.584 48.49C224.364 48.29 224.021 48.19 223.554 48.19C223.101 48.19 222.761 48.29 222.534 48.49C222.307 48.6833 222.194 48.95 222.194 49.29C222.194 49.4967 222.244 49.6833 222.344 49.85C222.444 50.0167 222.594 50.1467 222.794 50.24C223.001 50.3333 223.254 50.38 223.554 50.38Z" fill="white"/>
</svg>
