<svg width="236" height="64" viewBox="0 0 236 64" fill="none" xmlns="http://www.w3.org/2000/svg">
<path d="M214.683 40.8513C213.671 40.8513 212.851 40.0235 212.851 39.0026V20.1473C212.851 19.1263 213.671 18.2986 214.683 18.2986C215.695 18.2986 216.515 19.1263 216.515 20.1473V39.0026C216.515 40.0235 215.695 40.8513 214.683 40.8513Z" fill="white"/>
<path d="M85.5207 40.8512C85.3038 40.8512 85.128 40.6738 85.128 40.4548C85.128 40.3829 85.1474 40.3123 85.1842 40.2505L94.1902 25.1319C94.9516 23.8537 94.0396 22.2261 92.5616 22.2261H87.6059C86.6571 22.2261 85.8879 21.4499 85.8879 20.4924C85.8879 19.535 86.6571 18.7588 87.6059 18.7588H101.856C102.079 18.7588 102.261 18.9417 102.261 19.1674C102.261 19.2414 102.241 19.3139 102.203 19.3774L93.2505 34.4655C92.4918 35.7439 93.4044 37.3685 94.8806 37.3685H100.277C101.23 37.3685 102.002 38.1482 102.002 39.1099C102.002 40.0716 101.23 40.8512 100.277 40.8512H85.5207Z" fill="white"/>
<path fill-rule="evenodd" clip-rule="evenodd" d="M113.361 41.3114C111.699 41.3114 110.239 40.9481 108.982 40.2221C107.726 39.4958 106.743 38.4883 106.033 37.1996C105.334 35.9109 104.984 34.428 104.984 32.7506C104.984 30.9402 105.329 29.3702 106.018 28.0404C106.707 26.7008 107.665 25.6627 108.891 24.9262C110.117 24.1898 111.536 23.8215 113.148 23.8215C114.85 23.8215 116.294 24.2255 117.48 25.0335C118.676 25.8313 119.563 26.9615 120.141 28.4242C120.54 29.4345 120.767 30.5691 120.823 31.8282C120.867 32.8233 120.03 33.5944 119.043 33.5944H118.499C118.346 33.5944 117.617 33.5944 117.617 33.5944H109.089C109.028 33.5944 108.969 33.5903 108.91 33.5827C109.032 34.7778 109.38 35.738 109.955 36.4632C110.685 37.3839 111.749 37.8441 113.148 37.8441C114.05 37.8441 114.825 37.6446 115.474 37.2457C115.675 37.1204 115.863 36.9783 116.036 36.8194C116.735 36.1782 117.672 35.6886 118.577 35.9645C119.659 36.2949 120.244 37.5287 119.538 38.42C119.025 39.068 118.41 39.6176 117.693 40.0687C116.386 40.897 114.942 41.3114 113.361 41.3114ZM109.089 30.8022H117.076C116.943 29.7233 116.658 28.8897 116.219 28.3014C115.6 27.4729 114.627 27.0588 113.3 27.0588C111.8 27.0588 110.685 27.5291 109.955 28.47C109.486 29.0687 109.168 29.8469 109 30.805C109.03 30.803 109.059 30.8022 109.089 30.8022Z" fill="white"/>
<path d="M135.097 38.9794C135.097 40.013 135.927 40.8511 136.951 40.8511C137.976 40.8511 138.806 40.013 138.806 38.9794V31.5998C138.806 31.2009 138.771 30.6845 138.699 30.0503C138.639 29.4058 138.497 28.7259 138.274 28.0098C138.051 27.2939 137.706 26.6188 137.24 25.9846C136.774 25.3505 136.146 24.8289 135.355 24.4198C134.565 24.0107 133.561 23.8062 132.345 23.8062C130.805 23.8062 129.507 24.1488 128.453 24.8341C127.889 25.1953 127.398 25.6239 126.979 26.1201V25.931C126.979 25.0201 126.247 24.2818 125.344 24.2818C124.442 24.2818 123.71 25.0201 123.71 25.931V38.9794C123.71 40.013 124.541 40.8511 125.565 40.8511C126.589 40.8511 127.42 40.013 127.42 38.9794V31.0619C127.479 30.9447 127.522 30.8171 127.545 30.6824C127.598 30.3776 127.668 30.1005 127.754 29.8509C127.977 29.1962 128.271 28.6849 128.636 28.3166C129.011 27.9381 129.426 27.6723 129.882 27.5189C130.338 27.3655 130.8 27.2888 131.266 27.2888C132.137 27.2888 132.826 27.4779 133.333 27.8564C133.85 28.2348 134.235 28.7206 134.489 29.314C134.752 29.8969 134.919 30.5055 134.99 31.1396C135.061 31.7737 135.097 32.3516 135.097 32.8731V38.9794Z" fill="white"/>
<path d="M148.053 40.8512C147.042 40.8512 146.222 40.0235 146.222 39.0026V24.1438C146.222 23.0847 145.371 22.2261 144.321 22.2261H140.855C139.907 22.2261 139.138 21.4499 139.138 20.4924C139.138 19.535 139.907 18.7588 140.855 18.7588H155.252C156.2 18.7588 156.969 19.535 156.969 20.4924C156.969 21.4499 156.2 22.2261 155.252 22.2261H151.786C150.736 22.2261 149.885 23.0847 149.885 24.1438V39.0026C149.885 40.0235 149.065 40.8512 148.053 40.8512Z" fill="white"/>
<path fill-rule="evenodd" clip-rule="evenodd" d="M158.843 40.6362C159.664 41.0863 160.667 41.3114 161.853 41.3114C163.333 41.3114 164.564 41.0352 165.547 40.4828C166.311 40.05 167.001 39.4295 167.615 38.6212V39.8432C167.615 40.3998 168.062 40.8512 168.613 40.8512H169.219C170.104 40.8512 170.822 40.1264 170.822 39.2326V30.6794C170.822 29.9633 170.792 29.3036 170.731 28.7004C170.67 28.0865 170.493 27.4883 170.199 26.9054C169.662 25.8108 168.836 25.0233 167.721 24.5426C166.616 24.0619 165.334 23.8215 163.875 23.8215C161.939 23.8215 160.399 24.246 159.254 25.0949C158.592 25.59 158.054 26.1791 157.64 26.8618C157.134 27.6962 157.683 28.7044 158.607 28.9971C159.538 29.2915 160.478 28.6822 161.233 28.0587C161.385 27.9331 161.551 27.8248 161.732 27.7336C162.421 27.3861 163.135 27.2122 163.875 27.2122C165.101 27.2122 165.973 27.483 166.49 28.0252C166.92 28.4766 167.168 29.1368 167.233 30.0063C166.568 30.1066 165.92 30.203 165.289 30.2959C164.255 30.439 163.292 30.5977 162.4 30.7713C161.519 30.9452 160.748 31.1396 160.09 31.3543C159.218 31.651 158.509 32.0345 157.962 32.5051C157.414 32.9653 157.009 33.5177 156.745 34.1619C156.482 34.796 156.35 35.5122 156.35 36.3098C156.35 37.2201 156.558 38.0537 156.973 38.8106C157.399 39.5675 158.022 40.176 158.843 40.6362ZM164.711 37.9208C164.123 38.2175 163.414 38.3656 162.583 38.3656C162.005 38.3656 161.519 38.2737 161.123 38.0894C160.738 37.9054 160.444 37.6598 160.242 37.353C160.039 37.0361 159.938 36.6728 159.938 36.2637C159.938 35.9058 160.014 35.5939 160.166 35.3279C160.328 35.0621 160.556 34.8269 160.85 34.6221C161.144 34.4176 161.504 34.2386 161.929 34.0852C162.365 33.9422 162.867 33.8143 163.434 33.7017C164.002 33.5789 164.681 33.4511 165.471 33.3182C165.977 33.2331 166.547 33.1397 167.182 33.0377C167.174 33.3197 167.162 33.6432 167.143 34.0085C167.123 34.612 167.017 35.1489 166.824 35.6195C166.703 35.9979 166.464 36.4019 166.11 36.8315C165.765 37.2611 165.299 37.6241 164.711 37.9208Z" fill="white"/>
<path d="M187.991 40.8511C186.966 40.8511 186.136 40.013 186.136 38.9794V32.8731C186.136 32.3516 186.1 31.7737 186.029 31.1396C185.958 30.5055 185.791 29.8969 185.528 29.314C185.274 28.7206 184.889 28.2348 184.372 27.8564C183.866 27.4779 183.177 27.2888 182.305 27.2888C181.839 27.2888 181.378 27.3655 180.922 27.5189C180.465 27.6723 180.05 27.9381 179.675 28.3166C179.31 28.6849 179.016 29.1962 178.793 29.8509C178.707 30.1005 178.637 30.3776 178.585 30.6824C178.561 30.8171 178.518 30.9447 178.459 31.0619V38.9794C178.459 40.013 177.629 40.8511 176.604 40.8511C175.58 40.8511 174.75 40.013 174.75 38.9794V25.931C174.75 25.0201 175.481 24.2818 176.384 24.2818C177.286 24.2818 178.018 25.0201 178.018 25.931V26.1201C178.437 25.6239 178.929 25.1953 179.493 24.8341C180.547 24.1488 181.844 23.8062 183.384 23.8062C184.6 23.8062 185.604 24.0107 186.394 24.4198C187.185 24.8289 187.813 25.3505 188.279 25.9846C188.746 26.6188 189.09 27.2939 189.313 28.0098C189.536 28.7259 189.678 29.4058 189.739 30.0503C189.81 30.6845 189.845 31.2009 189.845 31.5998V38.9794C189.845 40.013 189.015 40.8511 187.991 40.8511Z" fill="white"/>
<path fill-rule="evenodd" clip-rule="evenodd" d="M198.084 48.2459C198.925 48.5322 199.802 48.6755 200.714 48.6755C201.95 48.6755 203.075 48.5067 204.089 48.1692C205.112 47.8315 205.969 47.3151 206.658 46.6195C207.347 45.9342 207.813 45.0548 208.056 43.9807C208.137 43.6127 208.193 43.2342 208.224 42.8454C208.264 42.467 208.284 42.0683 208.284 41.6488V25.9004C208.284 25.0065 207.566 24.2818 206.681 24.2818C205.926 24.2818 205.293 24.8077 205.122 25.5161C204.912 25.3212 204.689 25.1397 204.454 24.9722C203.4 24.2051 202.092 23.8215 200.531 23.8215C198.981 23.8215 197.633 24.2051 196.488 24.9722C195.343 25.729 194.456 26.7671 193.827 28.0865C193.209 29.3958 192.9 30.889 192.9 32.5664C192.9 34.2234 193.209 35.7116 193.827 37.031C194.446 38.3504 195.317 39.3936 196.442 40.1606C197.567 40.9279 198.885 41.3114 200.394 41.3114C201.996 41.3114 203.339 40.9279 204.423 40.1606C204.49 40.1133 204.556 40.0649 204.621 40.0155V41.5875C204.641 42.3751 204.484 43.0297 204.149 43.5512C203.825 44.083 203.364 44.482 202.766 44.7478C202.168 45.0239 201.489 45.1622 200.729 45.1622C200.08 45.1622 199.467 45.0138 198.89 44.7171C198.861 44.703 198.833 44.6883 198.806 44.6733C197.921 44.1916 196.848 43.742 195.947 44.1926C194.994 44.669 194.621 45.8849 195.394 46.621C195.535 46.7542 195.681 46.8815 195.834 47.0032C196.503 47.5452 197.253 47.9594 198.084 48.2459ZM205.077 32.5664C205.077 33.6404 204.935 34.5864 204.651 35.4046C204.378 36.223 203.936 36.8622 203.328 37.3224C202.731 37.7725 201.94 37.9975 200.957 37.9975C200.004 37.9975 199.219 37.757 198.601 37.2763C197.983 36.7956 197.521 36.1463 197.217 35.3279C196.923 34.4996 196.776 33.5789 196.776 32.5664C196.776 31.5642 196.929 30.6539 197.233 29.8355C197.537 29.0072 198.008 28.3526 198.646 27.8718C199.285 27.3807 200.096 27.1355 201.079 27.1355C202.011 27.1355 202.771 27.3656 203.359 27.8258C203.947 28.2759 204.378 28.91 204.651 29.7281C204.935 30.5362 205.077 31.4821 205.077 32.5664Z" fill="white"/>
<path fill-rule="evenodd" clip-rule="evenodd" d="M224.155 40.2221C225.411 40.9481 226.871 41.3114 228.533 41.3114C230.114 41.3114 231.558 40.897 232.865 40.0687C233.583 39.6176 234.198 39.068 234.711 38.42C235.416 37.5287 234.831 36.2949 233.749 35.9645C232.844 35.6886 231.908 36.1782 231.208 36.8194C231.035 36.9783 230.848 37.1204 230.646 37.2457C229.997 37.6446 229.222 37.8441 228.32 37.8441C226.921 37.8441 225.857 37.3839 225.128 36.4632C224.553 35.738 224.204 34.7778 224.082 33.5827C224.141 33.5903 224.2 33.5944 224.261 33.5944H232.789C232.945 33.5944 233.094 33.5685 233.234 33.5207C233.371 33.5683 233.518 33.5944 233.671 33.5944H234.215C235.202 33.5944 236.039 32.8233 235.995 31.8282C235.939 30.5691 235.712 29.4345 235.313 28.4242C234.735 26.9615 233.849 25.8313 232.652 25.0335C231.467 24.2255 230.023 23.8215 228.32 23.8215C226.709 23.8215 225.29 24.1898 224.063 24.9262C222.837 25.6627 221.88 26.7008 221.19 28.0404C220.501 29.3702 220.156 30.9402 220.156 32.7506C220.156 34.428 220.506 35.9109 221.206 37.1996C221.915 38.4883 222.898 39.4958 224.155 40.2221ZM232.248 30.8022H224.261C224.231 30.8022 224.202 30.803 224.173 30.805C224.34 29.8469 224.658 29.0687 225.128 28.47C225.857 27.5291 226.972 27.0588 228.472 27.0588C229.8 27.0588 230.772 27.4729 231.391 28.3014C231.83 28.8897 232.116 29.7233 232.248 30.8022Z" fill="white"/>
<path d="M58.2633 41.3977C57.7882 41.3977 57.3132 41.2741 56.8878 41.0273L49.7126 36.8637C49.1907 36.5609 48.7918 36.1007 48.5611 35.5623C48.5485 35.5739 48.5316 35.5904 48.5208 35.6048C48.4349 35.72 48.4142 35.7726 48.3775 35.8929C48.3359 36.0288 48.3372 36.2549 48.3372 36.2549C48.3372 37.2426 48.8616 38.1554 49.7126 38.6493L56.8878 42.8127C57.3132 43.0598 57.7882 43.1833 58.2633 43.1833V41.3977Z" fill="url(#paint0_linear_249_343)"/>
<path d="M58.2633 41.3977C58.7376 41.3977 59.2118 41.2741 59.637 41.0273L66.8036 36.8637C67.325 36.5609 67.7235 36.1007 67.9537 35.5623C67.9665 35.5739 67.9834 35.5904 67.994 35.6048C68.0799 35.72 68.1003 35.7726 68.137 35.8929C68.1788 36.0288 68.1776 36.2549 68.1776 36.2549C68.1776 37.2426 67.6539 38.1554 66.8036 38.6493L59.637 42.8127C59.2118 43.0598 58.7376 43.1833 58.2633 43.1833V41.3977Z" fill="url(#paint1_linear_249_343)"/>
<path d="M58.2633 32.0998C57.7923 32.0978 57.3215 31.9745 56.8994 31.7295L49.7242 27.566C49.2938 27.3162 48.9469 26.959 48.7092 26.5396C48.4694 26.9542 48.3372 27.4316 48.3372 27.9278V34.4695C48.3372 35.4572 48.8613 36.3698 49.7126 36.8637L56.8878 41.0273C57.3132 41.2741 57.7882 41.3977 58.2633 41.3977V32.0998Z" fill="url(#paint2_linear_249_343)"/>
<path d="M58.2633 41.3996C58.7381 41.3996 59.2131 41.2761 59.6385 41.0293L66.814 36.8656C67.665 36.3717 68.1892 35.4592 68.1892 34.4714V27.9297C68.1892 27.4417 68.0612 26.9718 67.829 26.562C67.5917 26.9726 67.2492 27.3222 66.8255 27.568L59.6503 31.7314C59.2214 31.9805 58.7421 32.1038 58.2633 32.1018V41.3996Z" fill="url(#paint3_linear_249_343)"/>
<path d="M59.6385 21.3699C58.7874 20.876 57.7389 20.876 56.8879 21.3699L49.7127 25.5336C49.287 25.7804 48.9432 26.132 48.7057 26.5454L48.7092 26.5396C48.947 26.9593 49.2938 27.3162 49.7242 27.566L56.8994 31.7295C57.3216 31.9745 57.7923 32.0978 58.2633 32.0998V32.1018C58.7421 32.1039 59.2214 31.9806 59.6503 31.7315L66.8256 27.5681C67.2492 27.3223 67.5917 26.9727 67.829 26.5621C68.0612 26.9719 68.1892 27.4417 68.1892 27.9298V27.9278C68.1892 26.94 67.665 26.0274 66.814 25.5336L59.6385 21.3699Z" fill="url(#paint4_linear_249_343)"/>
<path d="M35.137 22.785C35.612 22.785 36.0871 22.9085 36.5125 23.1554L43.6877 27.319C44.2095 27.6217 44.6085 28.0819 44.8392 28.6204C44.8518 28.6087 44.8687 28.5923 44.8795 28.5779C44.9654 28.4627 44.9861 28.41 45.0228 28.29C45.0644 28.1538 45.0631 27.9278 45.0631 27.9278C45.0631 26.94 44.539 26.0275 43.6877 25.5336L36.5125 21.3699C36.0871 21.123 35.612 20.9995 35.137 20.9995V22.785Z" fill="url(#paint5_linear_249_343)"/>
<path d="M35.137 22.785C34.6628 22.785 34.1885 22.9085 33.7634 23.1554L26.5967 27.319C26.0754 27.6217 25.6769 28.0819 25.4467 28.6204C25.4338 28.6087 25.417 28.5923 25.4064 28.5779C25.3205 28.4627 25.3001 28.41 25.2633 28.29C25.2215 28.1538 25.2228 27.9278 25.2228 27.9278C25.2228 26.94 25.7467 26.0275 26.5967 25.5336L33.7634 21.3699C34.1885 21.123 34.6628 20.9995 35.137 20.9995V22.785Z" fill="url(#paint6_linear_249_343)"/>
<path d="M35.137 32.083C35.6083 32.085 36.0788 32.2085 36.5009 32.4533L43.6761 36.617C44.1065 36.8668 44.4536 37.2238 44.6911 37.6435C44.9309 37.2286 45.0631 36.7514 45.0631 36.255V29.7136C45.0631 28.7258 44.539 27.813 43.6877 27.3191L36.5125 23.1556C36.0871 22.9086 35.612 22.7852 35.137 22.7852V32.083Z" fill="url(#paint7_linear_249_343)"/>
<path d="M35.137 22.783C34.6623 22.783 34.1872 22.9064 33.7618 23.1534L26.5864 27.3169C25.7353 27.8107 25.2112 28.7236 25.2112 29.7113V36.2528C25.2112 36.7411 25.3391 37.2106 25.5714 37.6207C25.8086 37.2099 26.1512 36.8605 26.5748 36.6147L33.75 32.4511C34.1792 32.2022 34.6582 32.0787 35.137 32.0807V22.783Z" fill="url(#paint8_linear_249_343)"/>
<path d="M33.7618 42.8128C34.6129 43.3066 35.6614 43.3066 36.5125 42.8128L43.6877 38.6493C44.1133 38.4023 44.4571 38.0507 44.6947 37.6373L44.6911 37.6434C44.4536 37.2237 44.1065 36.8667 43.6761 36.6169L36.5009 32.4532C36.0788 32.2084 35.6083 32.0849 35.137 32.0829V32.0808C34.6582 32.0788 34.1792 32.2023 33.75 32.4512L26.5748 36.6148C26.1512 36.8606 25.8086 37.21 25.5714 37.6208C25.3391 37.2107 25.2112 36.7412 25.2112 36.2529V36.2549C25.2112 37.2426 25.7353 38.1555 26.5864 38.6493L33.7618 42.8128Z" fill="url(#paint9_linear_249_343)"/>
<path d="M46.723 20.8259C46.2482 20.8259 45.7732 20.7024 45.3478 20.4555L38.1723 16.2919C37.6507 15.9891 37.2517 15.5289 37.021 14.9905C37.0084 15.0021 36.9916 15.0187 36.9807 15.0331C36.8948 15.1482 36.8742 15.2009 36.8374 15.321C36.7959 15.457 36.7971 15.6832 36.7971 15.6832C36.7971 16.6709 37.3213 17.5836 38.1726 18.0775L45.3478 22.2411C45.7732 22.488 46.2482 22.6114 46.723 22.6114V20.8259Z" fill="url(#paint10_linear_249_343)"/>
<path d="M46.723 20.8259C47.1975 20.8259 47.6717 20.7024 48.0969 20.4555L55.2635 16.2919C55.7849 15.9891 56.1834 15.5289 56.4136 14.9905C56.4262 15.0021 56.4433 15.0187 56.4539 15.0331C56.5398 15.1482 56.5602 15.2009 56.5969 15.321C56.6387 15.457 56.6375 15.6832 56.6375 15.6832C56.6375 16.6709 56.1136 17.5836 55.2635 18.0775L48.0969 22.2411C47.6717 22.488 47.1975 22.6114 46.723 22.6114V20.8259Z" fill="url(#paint11_linear_249_343)"/>
<path d="M46.723 11.5282C46.252 11.5262 45.7815 11.4027 45.3594 11.1579L38.1842 6.99426C37.7537 6.74444 37.4066 6.38746 37.1691 5.96777C36.9294 6.38255 36.7971 6.85984 36.7971 7.3561V13.8978C36.7971 14.8855 37.3213 15.7982 38.1723 16.292L45.3478 20.4556C45.7732 20.7026 46.2482 20.826 46.723 20.826V11.5282Z" fill="url(#paint12_linear_249_343)"/>
<path d="M46.723 20.828C47.198 20.828 47.673 20.7045 48.0984 20.4575L55.2736 16.294C56.1249 15.8001 56.6491 14.8874 56.6491 13.8997V7.35803C56.6491 6.86995 56.5211 6.40017 56.2889 5.99023C56.0516 6.40101 55.7088 6.75044 55.2855 6.99619L48.1103 11.1598C47.6811 11.4087 47.202 11.5322 46.723 11.5302V20.828Z" fill="url(#paint13_linear_249_343)"/>
<path d="M48.0984 0.798134C47.2473 0.304268 46.1988 0.304268 45.3478 0.798134L38.1726 4.96173C37.7469 5.20864 37.4031 5.56028 37.1656 5.97366L37.1691 5.96769C37.4066 6.38737 37.7537 6.74435 38.1841 6.99417L45.3593 11.1578C45.7815 11.4027 46.252 11.5261 46.723 11.5281V11.5301C47.202 11.5322 47.6811 11.4087 48.1102 11.1598L55.2855 6.99617C55.7091 6.75045 56.0516 6.40099 56.2889 5.99022C56.5211 6.40018 56.6491 6.86993 56.6491 7.35801V7.35601C56.6491 6.36828 56.1249 5.45558 55.2736 4.96173L48.0984 0.798134Z" fill="url(#paint14_linear_249_343)"/>
<path d="M11.4616 41.3977C10.9867 41.3977 10.5118 41.2741 10.0862 41.0273L2.91098 36.8637C2.38916 36.5609 1.9902 36.1007 1.75959 35.5623C1.74691 35.5739 1.73 35.5904 1.71926 35.6048C1.6333 35.72 1.61281 35.7726 1.57599 35.8929C1.53433 36.0288 1.53559 36.2549 1.53559 36.2549C1.53559 37.2426 2.05988 38.1554 2.91098 38.6493L10.0862 42.8127C10.5118 43.0598 10.9867 43.1833 11.4616 43.1833V41.3977Z" fill="url(#paint15_linear_249_343)"/>
<path d="M11.4616 41.3977C11.936 41.3977 12.4103 41.2741 12.8354 41.0273L20.0021 36.8637C20.5233 36.5609 20.9218 36.1007 21.1521 35.5623C21.1648 35.5739 21.1817 35.5904 21.1924 35.6048C21.2783 35.72 21.2988 35.7726 21.3355 35.8929C21.3771 36.0288 21.3759 36.2549 21.3759 36.2549C21.3759 37.2426 20.8522 38.1554 20.0021 38.6493L12.8354 42.8127C12.4103 43.0598 11.936 43.1833 11.4616 43.1833V41.3977Z" fill="url(#paint16_linear_249_343)"/>
<path d="M11.4616 32.0998C10.9906 32.098 10.52 31.9745 10.098 31.7295L2.92272 27.566C2.49219 27.3162 2.14528 26.9593 1.90756 26.5396C1.66792 26.9542 1.53558 27.4316 1.53558 27.9278V34.4695C1.53558 35.4572 2.05988 36.3698 2.91098 36.8637L10.0862 41.0273C10.5118 41.2741 10.9867 41.3977 11.4616 41.3977V32.0998Z" fill="url(#paint17_linear_249_343)"/>
<path d="M11.4616 41.3996C11.9365 41.3996 12.4115 41.2761 12.837 41.0293L20.0123 36.8656C20.8633 36.3717 21.3876 35.4592 21.3876 34.4714V27.9297C21.3876 27.4417 21.2596 26.9718 21.0274 26.562C20.7901 26.9726 20.4475 27.3222 20.024 27.568L12.8487 31.7314C12.4197 31.9805 11.9404 32.1038 11.4616 32.1018V41.3996Z" fill="url(#paint18_linear_249_343)"/>
<path d="M12.837 21.3699C11.9859 20.876 10.9373 20.876 10.0862 21.3699L2.91097 25.5336C2.48542 25.7804 2.14157 26.132 1.90411 26.5454L1.90756 26.5395C2.14527 26.9593 2.49218 27.3162 2.92271 27.566L10.098 31.7295C10.52 31.9745 10.9906 32.098 11.4616 32.0998V32.1018C11.9405 32.1038 12.4197 31.9806 12.8488 31.7315L20.024 27.5681C20.4475 27.3223 20.7901 26.9727 21.0274 26.5621C21.2597 26.9719 21.3877 27.4417 21.3877 27.9298V27.9278C21.3877 26.94 20.8634 26.0274 20.0123 25.5336L12.837 21.3699Z" fill="url(#paint19_linear_249_343)"/>
<path d="M23.162 20.8259C22.6871 20.8259 22.2122 20.7024 21.7866 20.4555L14.6113 16.2919C14.0895 15.9891 13.6906 15.5289 13.46 14.9905C13.4473 15.0021 13.4304 15.0187 13.4196 15.0331C13.3337 15.1482 13.3132 15.2009 13.2764 15.321C13.2347 15.457 13.236 15.6832 13.236 15.6832C13.236 16.6709 13.7603 17.5836 14.6113 18.0775L21.7866 22.2411C22.2122 22.488 22.6871 22.6114 23.162 22.6114V20.8259Z" fill="url(#paint20_linear_249_343)"/>
<path d="M23.162 20.8259C23.6364 20.8259 24.1107 20.7024 24.5357 20.4555L31.7026 16.2919C32.2237 15.9891 32.6221 15.5289 32.8526 14.9905C32.8652 15.0021 32.8821 15.0187 32.8929 15.0331C32.9788 15.1482 32.9992 15.2009 33.036 15.321C33.0775 15.457 33.0763 15.6832 33.0763 15.6832C33.0763 16.6709 32.5526 17.5836 31.7026 18.0775L24.5357 22.2411C24.1107 22.488 23.6364 22.6114 23.162 22.6114V20.8259Z" fill="url(#paint21_linear_249_343)"/>
<path d="M23.162 11.5282C22.691 11.5262 22.2204 11.4027 21.7984 11.1579L14.6231 6.99426C14.1926 6.74444 13.8457 6.38746 13.6079 5.96777C13.3683 6.38255 13.236 6.85984 13.236 7.3561V13.8978C13.236 14.8855 13.7603 15.7982 14.6114 16.292L21.7866 20.4556C22.2122 20.7026 22.6871 20.826 23.162 20.826V11.5282Z" fill="url(#paint22_linear_249_343)"/>
<path d="M23.162 20.828C23.6369 20.828 24.1118 20.7045 24.5374 20.4575L31.7126 16.294C32.5637 15.8001 33.0881 14.8874 33.0881 13.8997V7.35803C33.0881 6.86995 32.9599 6.40017 32.7277 5.99023C32.4904 6.40101 32.1479 6.75044 31.7245 6.99619L24.5491 11.1598C24.1201 11.4087 23.6408 11.5322 23.162 11.5302V20.828Z" fill="url(#paint23_linear_249_343)"/>
<path d="M24.5374 0.798134C23.6863 0.304268 22.6377 0.304268 21.7866 0.798134L14.6113 4.96173C14.1858 5.20864 13.842 5.56028 13.6045 5.97366L13.6079 5.96769C13.8457 6.38737 14.1926 6.74435 14.6231 6.99417L21.7984 11.1578C22.2204 11.4027 22.691 11.5261 23.162 11.5281V11.5301C23.6408 11.5322 24.1201 11.4087 24.5491 11.1598L31.7245 6.99617C32.1479 6.75045 32.4904 6.40099 32.7277 5.99022C32.9599 6.40018 33.0881 6.86993 33.0881 7.35801V7.35601C33.0881 6.36828 32.5637 5.45558 31.7126 4.96173L24.5374 0.798134Z" fill="url(#paint24_linear_249_343)"/>
<path d="M48.2341 61.1445C47.7594 61.1445 47.2844 61.021 46.8589 60.7739L39.6835 56.6105C39.1619 56.3077 38.7629 55.8473 38.5322 55.3088C38.5196 55.3207 38.5027 55.3372 38.4919 55.3516C38.406 55.4668 38.3854 55.5195 38.3486 55.6394C38.307 55.7756 38.3083 56.0017 38.3083 56.0017C38.3083 56.9894 38.8324 57.902 39.6835 58.3959L46.8589 62.5596C47.2844 62.8064 47.7594 62.9299 48.2341 62.9299V61.1445Z" fill="url(#paint25_linear_249_343)"/>
<path d="M48.2342 61.1445C48.7087 61.1445 49.183 61.021 49.6081 60.7739L56.7748 56.6105C57.2961 56.3077 57.6946 55.8473 57.9248 55.3088C57.9374 55.3207 57.9545 55.3372 57.9651 55.3516C58.051 55.4668 58.0714 55.5195 58.1082 55.6394C58.1497 55.7756 58.1485 56.0017 58.1485 56.0017C58.1485 56.9894 57.6248 57.902 56.7748 58.3959L49.6081 62.5596C49.183 62.8064 48.7087 62.9299 48.2342 62.9299V61.1445Z" fill="url(#paint26_linear_249_343)"/>
<path d="M48.2341 51.8466C47.7631 51.8446 47.2927 51.7211 46.8705 51.4763L39.6953 47.3126C39.2649 47.0628 38.9178 46.7058 38.6803 46.2861C38.4405 46.701 38.3083 47.1782 38.3083 47.6746V54.216C38.3083 55.2038 38.8324 56.1166 39.6835 56.6105L46.8589 60.7739C47.2843 61.021 47.7594 61.1445 48.2341 61.1445V51.8466Z" fill="url(#paint27_linear_249_343)"/>
<path d="M48.2342 61.1462C48.7092 61.1462 49.1842 61.0229 49.6096 60.7759L56.7848 56.6125C57.6362 56.1186 58.1603 55.2057 58.1603 54.218V47.6763C58.1603 47.1883 58.0323 46.7187 57.8001 46.3086C57.5629 46.7194 57.2201 47.0688 56.7967 47.3146L49.6215 51.4782C49.1923 51.7271 48.7132 51.8506 48.2342 51.8486V61.1462Z" fill="url(#paint28_linear_249_343)"/>
<path d="M49.6096 41.1166C48.7586 40.6229 47.7101 40.6229 46.859 41.1166L39.6835 45.2802C39.2581 45.5273 38.9143 45.8789 38.6768 46.2923L38.6803 46.2862C38.9179 46.7059 39.2649 47.0628 39.6954 47.3127L46.8706 51.4764C47.2927 51.7212 47.7632 51.8447 48.2342 51.8467V51.8487C48.7132 51.8508 49.1923 51.7272 49.6215 51.4784L56.7967 47.3147C57.2201 47.0689 57.5629 46.7196 57.8001 46.3087C58.0323 46.7188 58.1603 47.1884 58.1603 47.6765V47.6747C58.1603 46.6869 57.6362 45.7741 56.7848 45.2802L49.6096 41.1166Z" fill="url(#paint29_linear_249_343)"/>
<path d="M22.7957 61.1445C22.3208 61.1445 21.8458 61.021 21.4203 60.7739L14.245 56.6105C13.7232 56.3077 13.3243 55.8473 13.0936 55.3088C13.081 55.3207 13.064 55.3372 13.0533 55.3516C12.9674 55.4668 12.9469 55.5195 12.9101 55.6394C12.8684 55.7756 12.8696 56.0017 12.8696 56.0017C12.8696 56.9894 13.3939 57.902 14.245 58.3959L21.4203 62.5596C21.8458 62.8064 22.3208 62.9299 22.7957 62.9299V61.1445Z" fill="url(#paint30_linear_249_343)"/>
<path d="M22.7957 61.1445C23.27 61.1445 23.7444 61.021 24.1694 60.7739L31.3361 56.6105C31.8575 56.3077 32.2559 55.8473 32.4861 55.3088C32.4987 55.3207 32.5159 55.3372 32.5264 55.3516C32.6123 55.4668 32.6327 55.5195 32.6695 55.6394C32.7113 55.7756 32.71 56.0017 32.71 56.0017C32.71 56.9894 32.1862 57.902 31.3361 58.3959L24.1694 62.5596C23.7444 62.8064 23.27 62.9299 22.7957 62.9299V61.1445Z" fill="url(#paint31_linear_249_343)"/>
<path d="M22.7957 51.8466C22.3247 51.8446 21.8541 51.7211 21.432 51.4763L14.2568 47.3126C13.8262 47.0628 13.4793 46.7058 13.2416 46.2861C13.002 46.701 12.8696 47.1782 12.8696 47.6746V54.216C12.8696 55.2038 13.3939 56.1166 14.245 56.6105L21.4203 60.7739C21.8458 61.021 22.3208 61.1445 22.7957 61.1445V51.8466Z" fill="url(#paint32_linear_249_343)"/>
<path d="M22.7957 61.1462C23.2706 61.1462 23.7455 61.0229 24.171 60.7759L31.3462 56.6125C32.1975 56.1186 32.7216 55.2057 32.7216 54.218V47.6763C32.7216 47.1883 32.5937 46.7187 32.3615 46.3086C32.1242 46.7194 31.7814 47.0688 31.358 47.3146L24.1828 51.4782C23.7537 51.7271 23.2745 51.8506 22.7957 51.8486V61.1462Z" fill="url(#paint33_linear_249_343)"/>
<path d="M24.1711 41.1166C23.32 40.6229 22.2714 40.6229 21.4203 41.1166L14.245 45.2802C13.8195 45.5273 13.4756 45.8789 13.2382 46.2923L13.2416 46.2862C13.4793 46.7059 13.8262 47.0628 14.2568 47.3127L21.432 51.4764C21.8541 51.7212 22.3247 51.8447 22.7957 51.8467V51.8487C23.2745 51.8508 23.7538 51.7272 24.1828 51.4784L31.358 47.3147C31.7817 47.0689 32.1242 46.7196 32.3615 46.3087C32.5937 46.7188 32.7217 47.1884 32.7217 47.6765V47.6747C32.7217 46.6869 32.1975 45.7741 31.3462 45.2802L24.1711 41.1166Z" fill="url(#paint34_linear_249_343)"/>
<defs>
<linearGradient id="paint0_linear_249_343" x1="57.1457" y1="43.0061" x2="58.2708" y2="41.4276" gradientUnits="userSpaceOnUse">
<stop stop-color="#CFCFCF"/>
<stop offset="1" stop-color="#EBEBEB"/>
</linearGradient>
<linearGradient id="paint1_linear_249_343" x1="59.3806" y1="42.9198" x2="58.2542" y2="41.4001" gradientUnits="userSpaceOnUse">
<stop stop-color="#CFCFCF"/>
<stop offset="1" stop-color="#EBEBEB"/>
</linearGradient>
<linearGradient id="paint2_linear_249_343" x1="58.2633" y1="32.1778" x2="53.2453" y2="38.7771" gradientUnits="userSpaceOnUse">
<stop stop-color="white"/>
<stop offset="1" stop-color="white"/>
</linearGradient>
<linearGradient id="paint3_linear_249_343" x1="58.2633" y1="32.1797" x2="63.2807" y2="38.6906" gradientUnits="userSpaceOnUse">
<stop stop-color="white"/>
<stop offset="1" stop-color="#F1F1F1"/>
</linearGradient>
<linearGradient id="paint4_linear_249_343" x1="58.4474" y1="20.9995" x2="58.435" y2="32.0914" gradientUnits="userSpaceOnUse">
<stop stop-color="white"/>
<stop offset="1" stop-color="white"/>
</linearGradient>
<linearGradient id="paint5_linear_249_343" x1="36.2546" y1="21.1766" x2="35.1295" y2="22.7552" gradientUnits="userSpaceOnUse">
<stop stop-color="#CFCFCF"/>
<stop offset="1" stop-color="#EBEBEB"/>
</linearGradient>
<linearGradient id="paint6_linear_249_343" x1="34.0198" y1="21.263" x2="35.1461" y2="22.7826" gradientUnits="userSpaceOnUse">
<stop stop-color="#CFCFCF"/>
<stop offset="1" stop-color="#EBEBEB"/>
</linearGradient>
<linearGradient id="paint7_linear_249_343" x1="35.137" y1="32.005" x2="40.155" y2="25.4057" gradientUnits="userSpaceOnUse">
<stop stop-color="white"/>
<stop offset="1" stop-color="white"/>
</linearGradient>
<linearGradient id="paint8_linear_249_343" x1="35.137" y1="32.003" x2="30.1196" y2="25.4919" gradientUnits="userSpaceOnUse">
<stop stop-color="white"/>
<stop offset="1" stop-color="#F1F1F1"/>
</linearGradient>
<linearGradient id="paint9_linear_249_343" x1="34.9529" y1="43.1834" x2="34.9654" y2="32.0915" gradientUnits="userSpaceOnUse">
<stop stop-color="white"/>
<stop offset="1" stop-color="white"/>
</linearGradient>
<linearGradient id="paint10_linear_249_343" x1="45.6057" y1="22.4344" x2="46.7305" y2="20.8558" gradientUnits="userSpaceOnUse">
<stop stop-color="#CFCFCF"/>
<stop offset="1" stop-color="#EBEBEB"/>
</linearGradient>
<linearGradient id="paint11_linear_249_343" x1="47.8405" y1="22.348" x2="46.7141" y2="20.8284" gradientUnits="userSpaceOnUse">
<stop stop-color="#CFCFCF"/>
<stop offset="1" stop-color="#EBEBEB"/>
</linearGradient>
<linearGradient id="paint12_linear_249_343" x1="46.723" y1="11.6061" x2="41.7052" y2="18.2055" gradientUnits="userSpaceOnUse">
<stop stop-color="white"/>
<stop offset="1" stop-color="white"/>
</linearGradient>
<linearGradient id="paint13_linear_249_343" x1="46.723" y1="11.608" x2="51.7407" y2="18.1189" gradientUnits="userSpaceOnUse">
<stop stop-color="white"/>
<stop offset="1" stop-color="#F1F1F1"/>
</linearGradient>
<linearGradient id="paint14_linear_249_343" x1="46.9073" y1="0.427735" x2="46.8949" y2="11.5196" gradientUnits="userSpaceOnUse">
<stop stop-color="white"/>
<stop offset="1" stop-color="white"/>
</linearGradient>
<linearGradient id="paint15_linear_249_343" x1="10.3441" y1="43.0061" x2="11.4691" y2="41.4276" gradientUnits="userSpaceOnUse">
<stop stop-color="#CFCFCF"/>
<stop offset="1" stop-color="#EBEBEB"/>
</linearGradient>
<linearGradient id="paint16_linear_249_343" x1="12.5791" y1="42.9198" x2="11.4525" y2="41.4001" gradientUnits="userSpaceOnUse">
<stop stop-color="#CFCFCF"/>
<stop offset="1" stop-color="#EBEBEB"/>
</linearGradient>
<linearGradient id="paint17_linear_249_343" x1="11.4616" y1="32.1778" x2="6.44378" y2="38.7771" gradientUnits="userSpaceOnUse">
<stop stop-color="white"/>
<stop offset="1" stop-color="white"/>
</linearGradient>
<linearGradient id="paint18_linear_249_343" x1="11.4616" y1="32.1797" x2="16.4791" y2="38.6906" gradientUnits="userSpaceOnUse">
<stop stop-color="white"/>
<stop offset="1" stop-color="#F1F1F1"/>
</linearGradient>
<linearGradient id="paint19_linear_249_343" x1="11.6459" y1="20.9995" x2="11.6334" y2="32.0914" gradientUnits="userSpaceOnUse">
<stop stop-color="white"/>
<stop offset="1" stop-color="white"/>
</linearGradient>
<linearGradient id="paint20_linear_249_343" x1="22.0445" y1="22.4344" x2="23.1695" y2="20.8558" gradientUnits="userSpaceOnUse">
<stop stop-color="#CFCFCF"/>
<stop offset="1" stop-color="#EBEBEB"/>
</linearGradient>
<linearGradient id="paint21_linear_249_343" x1="24.2795" y1="22.348" x2="23.1529" y2="20.8284" gradientUnits="userSpaceOnUse">
<stop stop-color="#CFCFCF"/>
<stop offset="1" stop-color="#EBEBEB"/>
</linearGradient>
<linearGradient id="paint22_linear_249_343" x1="23.162" y1="11.6061" x2="18.1442" y2="18.2055" gradientUnits="userSpaceOnUse">
<stop stop-color="white"/>
<stop offset="1" stop-color="white"/>
</linearGradient>
<linearGradient id="paint23_linear_249_343" x1="23.162" y1="11.608" x2="28.1794" y2="18.1189" gradientUnits="userSpaceOnUse">
<stop stop-color="white"/>
<stop offset="1" stop-color="#F1F1F1"/>
</linearGradient>
<linearGradient id="paint24_linear_249_343" x1="23.3463" y1="0.427735" x2="23.3338" y2="11.5196" gradientUnits="userSpaceOnUse">
<stop stop-color="white"/>
<stop offset="1" stop-color="white"/>
</linearGradient>
<linearGradient id="paint25_linear_249_343" x1="47.1169" y1="62.753" x2="48.2417" y2="61.1742" gradientUnits="userSpaceOnUse">
<stop stop-color="#CFCFCF"/>
<stop offset="1" stop-color="#EBEBEB"/>
</linearGradient>
<linearGradient id="paint26_linear_249_343" x1="49.3517" y1="62.6664" x2="48.2251" y2="61.1469" gradientUnits="userSpaceOnUse">
<stop stop-color="#CFCFCF"/>
<stop offset="1" stop-color="#EBEBEB"/>
</linearGradient>
<linearGradient id="paint27_linear_249_343" x1="48.2341" y1="51.9243" x2="43.2164" y2="58.5239" gradientUnits="userSpaceOnUse">
<stop stop-color="white"/>
<stop offset="1" stop-color="white"/>
</linearGradient>
<linearGradient id="paint28_linear_249_343" x1="48.2342" y1="51.9263" x2="53.2519" y2="58.4372" gradientUnits="userSpaceOnUse">
<stop stop-color="white"/>
<stop offset="1" stop-color="#F1F1F1"/>
</linearGradient>
<linearGradient id="paint29_linear_249_343" x1="48.4186" y1="40.7462" x2="48.4061" y2="51.8381" gradientUnits="userSpaceOnUse">
<stop stop-color="white"/>
<stop offset="1" stop-color="white"/>
</linearGradient>
<linearGradient id="paint30_linear_249_343" x1="21.6782" y1="62.753" x2="22.8032" y2="61.1742" gradientUnits="userSpaceOnUse">
<stop stop-color="#CFCFCF"/>
<stop offset="1" stop-color="#EBEBEB"/>
</linearGradient>
<linearGradient id="paint31_linear_249_343" x1="23.9131" y1="62.6664" x2="22.7866" y2="61.1469" gradientUnits="userSpaceOnUse">
<stop stop-color="#CFCFCF"/>
<stop offset="1" stop-color="#EBEBEB"/>
</linearGradient>
<linearGradient id="paint32_linear_249_343" x1="22.7957" y1="51.9243" x2="17.7778" y2="58.5239" gradientUnits="userSpaceOnUse">
<stop stop-color="white"/>
<stop offset="1" stop-color="white"/>
</linearGradient>
<linearGradient id="paint33_linear_249_343" x1="22.7957" y1="51.9263" x2="27.8132" y2="58.4372" gradientUnits="userSpaceOnUse">
<stop stop-color="white"/>
<stop offset="1" stop-color="#F1F1F1"/>
</linearGradient>
<linearGradient id="paint34_linear_249_343" x1="22.9799" y1="40.7462" x2="22.9675" y2="51.8381" gradientUnits="userSpaceOnUse">
<stop stop-color="white"/>
<stop offset="1" stop-color="white"/>
</linearGradient>
</defs>
</svg>
